<svg width="243" height="47" viewBox="0 0 243 47" fill="none" xmlns="http://www.w3.org/2000/svg">
<path d="M70.8664 23L67.8381 18.6258H67.6587H64.4958V23H60.8618V7.29773H67.6587C69.0495 7.29773 70.2533 7.52952 71.2702 7.99311C72.3021 8.4567 73.0947 9.1147 73.648 9.96711C74.2013 10.8195 74.478 11.829 74.478 12.9954C74.478 14.1619 74.1938 15.1713 73.6255 16.0237C73.0722 16.8612 72.2796 17.5042 71.2478 17.9528L74.7696 23H70.8664ZM70.7991 12.9954C70.7991 12.1131 70.515 11.4401 69.9467 10.9765C69.3785 10.498 68.5485 10.2587 67.4568 10.2587H64.4958V15.7321H67.4568C68.5485 15.7321 69.3785 15.4928 69.9467 15.0143C70.515 14.5357 70.7991 13.8628 70.7991 12.9954ZM77.3571 7.29773H80.9911V23H77.3571V7.29773ZM89.8769 23.2692C88.6356 23.2692 87.4318 23.1047 86.2653 22.7757C85.1138 22.4317 84.1867 21.9906 83.4838 21.4522L84.7176 18.7155C85.3905 19.209 86.1906 19.6053 87.1178 19.9044C88.0449 20.2035 88.9721 20.353 89.8993 20.353C90.9312 20.353 91.6938 20.2035 92.1873 19.9044C92.6808 19.5904 92.9276 19.1791 92.9276 18.6707C92.9276 18.2968 92.7781 17.9902 92.479 17.751C92.1948 17.4967 91.821 17.2948 91.3574 17.1453C90.9087 16.9957 90.2956 16.8312 89.518 16.6518C88.3216 16.3677 87.3421 16.0835 86.5794 15.7994C85.8167 15.5152 85.1587 15.0591 84.6054 14.431C84.067 13.803 83.7978 12.9655 83.7978 11.9187C83.7978 11.0065 84.0446 10.184 84.5381 9.45118C85.0316 8.70345 85.7718 8.11275 86.7588 7.67907C87.7608 7.24539 88.9796 7.02855 90.4152 7.02855C91.4172 7.02855 92.3967 7.14818 93.3538 7.38745C94.3109 7.62673 95.1483 7.97068 95.8662 8.41932L94.7446 11.1784C93.294 10.3559 91.8434 9.94468 90.3928 9.94468C89.3759 9.94468 88.6207 10.1092 88.1272 10.4382C87.6486 10.7672 87.4094 11.2009 87.4094 11.7392C87.4094 12.2776 87.686 12.6814 88.2393 12.9505C88.8076 13.2048 89.6675 13.459 90.819 13.7132C92.0154 13.9974 92.9949 14.2815 93.7576 14.5656C94.5203 14.8498 95.1708 15.2984 95.7091 15.9115C96.2625 16.5247 96.5391 17.3547 96.5391 18.4015C96.5391 19.2987 96.2849 20.1212 95.7764 20.869C95.2829 21.6017 94.5352 22.185 93.5333 22.6187C92.5313 23.0523 91.3125 23.2692 89.8769 23.2692ZM113.423 7.29773V23H109.789V16.5621H102.656V23H99.0222V7.29773H102.656V13.4889H109.789V7.29773H113.423ZM127.48 19.6352H120.189L118.798 23H115.075L122.074 7.29773H125.663L132.684 23H128.87L127.48 19.6352ZM126.336 16.8761L123.846 10.8644L121.356 16.8761H126.336ZM148.555 7.29773L141.758 23H138.169L131.395 7.29773H135.32L140.098 18.5136L144.944 7.29773H148.555ZM167.158 14.9021H170.478V21.2727C169.625 21.9158 168.638 22.4093 167.517 22.7532C166.395 23.0972 165.266 23.2692 164.13 23.2692C162.499 23.2692 161.034 22.9252 159.733 22.2373C158.432 21.5345 157.407 20.5699 156.66 19.3436C155.927 18.1024 155.561 16.7041 155.561 15.1489C155.561 13.5936 155.927 12.2028 156.66 10.9765C157.407 9.73532 158.439 8.77075 159.755 8.08284C161.071 7.37998 162.552 7.02855 164.197 7.02855C165.573 7.02855 166.821 7.26034 167.943 7.72393C169.065 8.18752 170.007 8.86048 170.769 9.7428L168.436 11.8962C167.315 10.7148 165.961 10.1241 164.376 10.1241C163.374 10.1241 162.485 10.3335 161.707 10.7522C160.929 11.171 160.324 11.7617 159.89 12.5243C159.456 13.287 159.239 14.1619 159.239 15.1489C159.239 16.1209 159.456 16.9883 159.89 17.751C160.324 18.5136 160.922 19.1118 161.684 19.5455C162.462 19.9642 163.344 20.1736 164.331 20.1736C165.378 20.1736 166.32 19.9493 167.158 19.5006V14.9021ZM188.255 7.29773V23H184.621V16.5621H177.487V23H173.853V7.29773H177.487V13.4889H184.621V7.29773H188.255ZM199.574 23.2692C197.944 23.2692 196.471 22.9178 195.155 22.2149C193.854 21.512 192.83 20.5475 192.082 19.3212C191.349 18.08 190.983 16.6892 190.983 15.1489C190.983 13.6085 191.349 12.2252 192.082 10.999C192.83 9.75775 193.854 8.7857 195.155 8.08284C196.471 7.37998 197.944 7.02855 199.574 7.02855C201.204 7.02855 202.67 7.37998 203.971 8.08284C205.272 8.7857 206.296 9.75775 207.044 10.999C207.792 12.2252 208.165 13.6085 208.165 15.1489C208.165 16.6892 207.792 18.08 207.044 19.3212C206.296 20.5475 205.272 21.512 203.971 22.2149C202.67 22.9178 201.204 23.2692 199.574 23.2692ZM199.574 20.1736C200.501 20.1736 201.339 19.9642 202.086 19.5455C202.834 19.1118 203.417 18.5136 203.836 17.751C204.27 16.9883 204.487 16.1209 204.487 15.1489C204.487 14.1768 204.27 13.3095 203.836 12.5468C203.417 11.7841 202.834 11.1934 202.086 10.7747C201.339 10.341 200.501 10.1241 199.574 10.1241C198.647 10.1241 197.809 10.341 197.062 10.7747C196.314 11.1934 195.723 11.7841 195.29 12.5468C194.871 13.3095 194.662 14.1768 194.662 15.1489C194.662 16.1209 194.871 16.9883 195.29 17.751C195.723 18.5136 196.314 19.1118 197.062 19.5455C197.809 19.9642 198.647 20.1736 199.574 20.1736ZM216.056 23.2692C214.815 23.2692 213.611 23.1047 212.444 22.7757C211.293 22.4317 210.366 21.9906 209.663 21.4522L210.897 18.7155C211.569 19.209 212.37 19.6053 213.297 19.9044C214.224 20.2035 215.151 20.353 216.078 20.353C217.11 20.353 217.873 20.2035 218.366 19.9044C218.86 19.5904 219.107 19.1791 219.107 18.6707C219.107 18.2968 218.957 17.9902 218.658 17.751C218.374 17.4967 218 17.2948 217.536 17.1453C217.088 16.9957 216.475 16.8312 215.697 16.6518C214.501 16.3677 213.521 16.0835 212.758 15.7994C211.996 15.5152 211.338 15.0591 210.784 14.431C210.246 13.803 209.977 12.9655 209.977 11.9187C209.977 11.0065 210.224 10.184 210.717 9.45118C211.211 8.70345 211.951 8.11275 212.938 7.67907C213.94 7.24539 215.159 7.02855 216.594 7.02855C217.596 7.02855 218.576 7.14818 219.533 7.38745C220.49 7.62673 221.327 7.97068 222.045 8.41932L220.924 11.1784C219.473 10.3559 218.022 9.94468 216.572 9.94468C215.555 9.94468 214.8 10.1092 214.306 10.4382C213.828 10.7672 213.588 11.2009 213.588 11.7392C213.588 12.2776 213.865 12.6814 214.418 12.9505C214.987 13.2048 215.846 13.459 216.998 13.7132C218.194 13.9974 219.174 14.2815 219.937 14.5656C220.699 14.8498 221.35 15.2984 221.888 15.9115C222.441 16.5247 222.718 17.3547 222.718 18.4015C222.718 19.2987 222.464 20.1212 221.955 20.869C221.462 21.6017 220.714 22.185 219.712 22.6187C218.71 23.0523 217.491 23.2692 216.056 23.2692ZM239.602 7.29773V23H235.968V16.5621H228.835V23H225.201V7.29773H228.835V13.4889H235.968V7.29773H239.602Z" fill="black"/>
<path d="M65.2291 33.667C66.1849 33.667 66.9369 33.8954 67.4851 34.3523C68.0333 34.8091 68.3074 35.4381 68.3074 36.2393C68.3074 37.0405 68.0333 37.6695 67.4851 38.1263C66.9369 38.5831 66.1849 38.8115 65.2291 38.8115H63.4054V41.0464H62.3512V33.667H65.2291ZM65.1975 37.8943C65.8652 37.8943 66.3747 37.7538 66.7261 37.4727C67.0775 37.1845 67.2532 36.7734 67.2532 36.2393C67.2532 35.7051 67.0775 35.2975 66.7261 35.0164C66.3747 34.7283 65.8652 34.5842 65.1975 34.5842H63.4054V37.8943H65.1975ZM75.5277 41.0464L73.9359 38.7799C73.7391 38.7939 73.5845 38.801 73.472 38.801H71.6483V41.0464H70.5941V33.667H73.472C74.4278 33.667 75.1798 33.8954 75.728 34.3523C76.2762 34.8091 76.5503 35.4381 76.5503 36.2393C76.5503 36.8085 76.4097 37.2935 76.1286 37.6941C75.8475 38.0946 75.4469 38.3863 74.9268 38.569L76.6768 41.0464H75.5277ZM73.4404 37.9049C74.1081 37.9049 74.6176 37.7608 74.969 37.4727C75.3204 37.1845 75.4961 36.7734 75.4961 36.2393C75.4961 35.7051 75.3204 35.2975 74.969 35.0164C74.6176 34.7283 74.1081 34.5842 73.4404 34.5842H71.6483V37.9049H73.4404ZM82.3226 41.1307C81.5777 41.1307 80.9065 40.9691 80.3091 40.6458C79.7118 40.3155 79.2409 39.8622 78.8965 39.2859C78.5592 38.7096 78.3905 38.0665 78.3905 37.3567C78.3905 36.6469 78.5592 36.0038 78.8965 35.4275C79.2409 34.8512 79.7118 34.4015 80.3091 34.0782C80.9065 33.7479 81.5777 33.5827 82.3226 33.5827C83.0606 33.5827 83.7282 33.7479 84.3256 34.0782C84.923 34.4015 85.3903 34.8512 85.7277 35.4275C86.065 35.9968 86.2337 36.6399 86.2337 37.3567C86.2337 38.0736 86.065 38.7201 85.7277 39.2964C85.3903 39.8657 84.923 40.3155 84.3256 40.6458C83.7282 40.9691 83.0606 41.1307 82.3226 41.1307ZM82.3226 40.1925C82.8638 40.1925 83.3487 40.0695 83.7774 39.8235C84.2132 39.5775 84.554 39.2402 84.8 38.8115C85.053 38.3758 85.1795 37.8908 85.1795 37.3567C85.1795 36.8226 85.053 36.3412 84.8 35.9125C84.554 35.4767 84.2132 35.1359 83.7774 34.8899C83.3487 34.6439 82.8638 34.5209 82.3226 34.5209C81.7815 34.5209 81.2895 34.6439 80.8468 34.8899C80.411 35.1359 80.0667 35.4767 79.8137 35.9125C79.5677 36.3412 79.4447 36.8226 79.4447 37.3567C79.4447 37.8908 79.5677 38.3758 79.8137 38.8115C80.0667 39.2402 80.411 39.5775 80.8468 39.8235C81.2895 40.0695 81.7815 40.1925 82.3226 40.1925ZM88.5829 33.667H91.6928C92.4729 33.667 93.1651 33.8216 93.7695 34.1309C94.3739 34.4401 94.8413 34.8758 95.1716 35.4381C95.509 35.9933 95.6776 36.6328 95.6776 37.3567C95.6776 38.0806 95.509 38.7236 95.1716 39.2859C94.8413 39.8411 94.3739 40.2733 93.7695 40.5825C93.1651 40.8918 92.4729 41.0464 91.6928 41.0464H88.5829V33.667ZM91.6295 40.1292C92.2269 40.1292 92.7505 40.0133 93.2003 39.7814C93.6571 39.5494 94.0085 39.2261 94.2545 38.8115C94.5004 38.3898 94.6234 37.9049 94.6234 37.3567C94.6234 36.8085 94.5004 36.3271 94.2545 35.9125C94.0085 35.4908 93.6571 35.164 93.2003 34.9321C92.7505 34.7001 92.2269 34.5842 91.6295 34.5842H89.6371V40.1292H91.6295ZM101.087 41.1307C100.104 41.1307 99.3375 40.8496 98.7893 40.2874C98.2411 39.7251 97.967 38.9169 97.967 37.8627V33.667H99.0212V37.8206C99.0212 39.4018 99.7135 40.1925 101.098 40.1925C101.773 40.1925 102.289 39.9992 102.648 39.6127C103.006 39.2191 103.185 38.6217 103.185 37.8206V33.667H104.208V37.8627C104.208 38.9239 103.934 39.7357 103.386 40.2979C102.837 40.8531 102.071 41.1307 101.087 41.1307ZM110.407 41.1307C109.669 41.1307 109.001 40.9691 108.404 40.6458C107.813 40.3155 107.35 39.8657 107.012 39.2964C106.675 38.7201 106.506 38.0736 106.506 37.3567C106.506 36.6399 106.675 35.9968 107.012 35.4275C107.35 34.8512 107.817 34.4015 108.414 34.0782C109.012 33.7479 109.679 33.5827 110.417 33.5827C110.994 33.5827 111.521 33.6811 111.999 33.8779C112.476 34.0676 112.884 34.3523 113.221 34.7318L112.536 35.3959C111.981 34.8126 111.289 34.5209 110.459 34.5209C109.911 34.5209 109.416 34.6439 108.973 34.8899C108.53 35.1359 108.182 35.4767 107.929 35.9125C107.683 36.3412 107.56 36.8226 107.56 37.3567C107.56 37.8908 107.683 38.3758 107.929 38.8115C108.182 39.2402 108.53 39.5775 108.973 39.8235C109.416 40.0695 109.911 40.1925 110.459 40.1925C111.282 40.1925 111.974 39.8973 112.536 39.307L113.221 39.9711C112.884 40.3506 112.473 40.6388 111.988 40.8355C111.51 41.0323 110.983 41.1307 110.407 41.1307ZM116.846 34.5842H114.316V33.667H120.42V34.5842H117.89V41.0464H116.846V34.5842ZM122.306 33.667H123.36V41.0464H122.306V33.667ZM132.645 33.667L129.408 41.0464H128.365L125.118 33.667H126.256L128.913 39.7286L131.591 33.667H132.645ZM139.679 40.1292V41.0464H134.324V33.667H139.532V34.5842H135.378V36.8507H139.078V37.7468H135.378V40.1292H139.679ZM155.709 33.667C156.665 33.667 157.417 33.8954 157.965 34.3523C158.513 34.8091 158.787 35.4381 158.787 36.2393C158.787 37.0405 158.513 37.6695 157.965 38.1263C157.417 38.5831 156.665 38.8115 155.709 38.8115H153.885V41.0464H152.831V33.667H155.709ZM155.677 37.8943C156.345 37.8943 156.855 37.7538 157.206 37.4727C157.557 37.1845 157.733 36.7734 157.733 36.2393C157.733 35.7051 157.557 35.2975 157.206 35.0164C156.855 34.7283 156.345 34.5842 155.677 34.5842H153.885V37.8943H155.677ZM166.008 41.0464L164.416 38.7799C164.219 38.7939 164.064 38.801 163.952 38.801H162.128V41.0464H161.074V33.667H163.952C164.908 33.667 165.66 33.8954 166.208 34.3523C166.756 34.8091 167.03 35.4381 167.03 36.2393C167.03 36.8085 166.89 37.2935 166.608 37.6941C166.327 38.0946 165.927 38.3863 165.407 38.569L167.157 41.0464H166.008ZM163.92 37.9049C164.588 37.9049 165.097 37.7608 165.449 37.4727C165.8 37.1845 165.976 36.7734 165.976 36.2393C165.976 35.7051 165.8 35.2975 165.449 35.0164C165.097 34.7283 164.588 34.5842 163.92 34.5842H162.128V37.9049H163.92ZM172.803 41.1307C172.058 41.1307 171.386 40.9691 170.789 40.6458C170.192 40.3155 169.721 39.8622 169.376 39.2859C169.039 38.7096 168.87 38.0665 168.87 37.3567C168.87 36.6469 169.039 36.0038 169.376 35.4275C169.721 34.8512 170.192 34.4015 170.789 34.0782C171.386 33.7479 172.058 33.5827 172.803 33.5827C173.54 33.5827 174.208 33.7479 174.805 34.0782C175.403 34.4015 175.87 34.8512 176.208 35.4275C176.545 35.9968 176.714 36.6399 176.714 37.3567C176.714 38.0736 176.545 38.7201 176.208 39.2964C175.87 39.8657 175.403 40.3155 174.805 40.6458C174.208 40.9691 173.54 41.1307 172.803 41.1307ZM172.803 40.1925C173.344 40.1925 173.829 40.0695 174.257 39.8235C174.693 39.5775 175.034 39.2402 175.28 38.8115C175.533 38.3758 175.659 37.8908 175.659 37.3567C175.659 36.8226 175.533 36.3412 175.28 35.9125C175.034 35.4767 174.693 35.1359 174.257 34.8899C173.829 34.6439 173.344 34.5209 172.803 34.5209C172.261 34.5209 171.769 34.6439 171.327 34.8899C170.891 35.1359 170.547 35.4767 170.294 35.9125C170.048 36.3412 169.925 36.8226 169.925 37.3567C169.925 37.8908 170.048 38.3758 170.294 38.8115C170.547 39.2402 170.891 39.5775 171.327 39.8235C171.769 40.0695 172.261 40.1925 172.803 40.1925ZM184.176 37.3145H185.188V40.1925C184.822 40.4947 184.397 40.7266 183.912 40.8883C183.427 41.0499 182.921 41.1307 182.394 41.1307C181.649 41.1307 180.978 40.9691 180.381 40.6458C179.783 40.3155 179.312 39.8657 178.968 39.2964C178.631 38.7201 178.462 38.0736 178.462 37.3567C178.462 36.6399 178.631 35.9933 178.968 35.417C179.312 34.8407 179.783 34.3909 180.381 34.0676C180.985 33.7443 181.663 33.5827 182.415 33.5827C183.005 33.5827 183.54 33.6811 184.017 33.8779C184.502 34.0676 184.914 34.3487 185.251 34.7212L184.597 35.3748C184.007 34.8056 183.294 34.5209 182.457 34.5209C181.895 34.5209 181.389 34.6439 180.939 34.8899C180.496 35.1288 180.149 35.4662 179.896 35.9019C179.643 36.3306 179.516 36.8156 179.516 37.3567C179.516 37.8908 179.643 38.3758 179.896 38.8115C180.149 39.2402 180.496 39.5775 180.939 39.8235C181.389 40.0695 181.892 40.1925 182.447 40.1925C183.107 40.1925 183.684 40.0344 184.176 39.7181V37.3145ZM192.878 41.0464L191.286 38.7799C191.089 38.7939 190.934 38.801 190.822 38.801H188.998V41.0464H187.944V33.667H190.822C191.778 33.667 192.53 33.8954 193.078 34.3523C193.626 34.8091 193.9 35.4381 193.9 36.2393C193.9 36.8085 193.76 37.2935 193.478 37.6941C193.197 38.0946 192.797 38.3863 192.277 38.569L194.027 41.0464H192.878ZM190.79 37.9049C191.458 37.9049 191.967 37.7608 192.319 37.4727C192.67 37.1845 192.846 36.7734 192.846 36.2393C192.846 35.7051 192.67 35.2975 192.319 35.0164C191.967 34.7283 191.458 34.5842 190.79 34.5842H188.998V37.9049H190.79ZM201.043 39.2015H197.121L196.31 41.0464H195.224L198.566 33.667H199.609L202.962 41.0464H201.855L201.043 39.2015ZM200.674 38.3582L199.082 34.7423L197.49 38.3582H200.674ZM211.642 41.0464L211.631 35.67L208.964 40.1503H208.479L205.812 35.7016V41.0464H204.8V33.667H205.665L208.743 38.8537L211.779 33.667H212.644L212.654 41.0464H211.642ZM222.448 41.0464L222.438 35.67L219.771 40.1503H219.286L216.619 35.7016V41.0464H215.607V33.667H216.471L219.549 38.8537L222.585 33.667H223.45L223.46 41.0464H222.448ZM231.768 40.1292V41.0464H226.413V33.667H231.621V34.5842H227.467V36.8507H231.167V37.7468H227.467V40.1292H231.768ZM239.147 41.0464L237.555 38.7799C237.358 38.7939 237.204 38.801 237.091 38.801H235.267V41.0464H234.213V33.667H237.091C238.047 33.667 238.799 33.8954 239.347 34.3523C239.895 34.8091 240.169 35.4381 240.169 36.2393C240.169 36.8085 240.029 37.2935 239.748 37.6941C239.467 38.0946 239.066 38.3863 238.546 38.569L240.296 41.0464H239.147ZM237.059 37.9049C237.727 37.9049 238.237 37.7608 238.588 37.4727C238.939 37.1845 239.115 36.7734 239.115 36.2393C239.115 35.7051 238.939 35.2975 238.588 35.0164C238.237 34.7283 237.727 34.5842 237.059 34.5842H235.267V37.9049H237.059Z" fill="black"/>
<g filter="url(#filter0_d)">
<path d="M24.442 26.337H18.0297V37.3804H14.4111V10.0813H23.4483C26.5232 10.0813 28.8856 10.7813 30.5355 12.1813C32.198 13.5812 33.0292 15.6186 33.0292 18.2936C33.0292 19.9935 32.5667 21.4747 31.6418 22.7371C30.7293 23.9996 29.4543 24.9433 27.8169 25.5683L34.2292 37.1554V37.3804H30.3668L24.442 26.337ZM18.0297 23.3934H23.5608C25.3482 23.3934 26.7669 22.9309 27.8169 22.0059C28.8794 21.081 29.4106 19.8435 29.4106 18.2936C29.4106 16.6061 28.9044 15.3124 27.8919 14.4124C26.8919 13.5125 25.442 13.0562 23.542 13.0437H18.0297V23.3934Z" fill="black"/>
<path d="M24.442 26.337L24.6964 26.2005L24.6148 26.0483H24.442V26.337ZM18.0297 26.337V26.0483H17.741V26.337H18.0297ZM18.0297 37.3804V37.6691H18.3185V37.3804H18.0297ZM14.4111 37.3804H14.1224V37.6691H14.4111V37.3804ZM14.4111 10.0813V9.79263H14.1224V10.0813H14.4111ZM30.5355 12.1813L30.3488 12.4014L30.3496 12.4021L30.5355 12.1813ZM31.6418 22.7371L31.4089 22.5665L31.4078 22.568L31.6418 22.7371ZM27.8169 25.5683L27.7139 25.2986L27.4033 25.4171L27.5643 25.7081L27.8169 25.5683ZM34.2292 37.1554H34.5179V37.0808L34.4818 37.0156L34.2292 37.1554ZM34.2292 37.3804V37.6691H34.5179V37.3804H34.2292ZM30.3668 37.3804L30.1124 37.5169L30.1941 37.6691H30.3668V37.3804ZM18.0297 23.3934H17.741V23.6821H18.0297V23.3934ZM27.8169 22.0059L27.6273 21.7882L27.626 21.7893L27.8169 22.0059ZM27.8919 14.4124L27.6987 14.627L27.7001 14.6282L27.8919 14.4124ZM23.542 13.0437L23.5439 12.755H23.542V13.0437ZM18.0297 13.0437V12.755H17.741V13.0437H18.0297ZM24.442 26.0483H18.0297V26.6257H24.442V26.0483ZM17.741 26.337V37.3804H18.3185V26.337H17.741ZM18.0297 37.0917H14.4111V37.6691H18.0297V37.0917ZM14.6998 37.3804V10.0813H14.1224V37.3804H14.6998ZM14.4111 10.3701H23.4483V9.79263H14.4111V10.3701ZM23.4483 10.3701C26.4832 10.3701 28.7692 11.0612 30.3488 12.4014L30.7223 11.9611C29.002 10.5015 26.5632 9.79263 23.4483 9.79263V10.3701ZM30.3496 12.4021C31.9321 13.7347 32.7405 15.6823 32.7405 18.2936H33.3179C33.3179 15.5549 32.4639 13.4277 30.7215 11.9604L30.3496 12.4021ZM32.7405 18.2936C32.7405 19.9377 32.2944 21.3579 31.4089 22.5665L31.8746 22.9078C32.839 21.5915 33.3179 20.0493 33.3179 18.2936H32.7405ZM31.4078 22.568C30.5323 23.7793 29.3056 24.691 27.7139 25.2986L27.9198 25.838C29.603 25.1956 30.9263 24.2199 31.8757 22.9063L31.4078 22.568ZM27.5643 25.7081L33.9765 37.2952L34.4818 37.0156L28.0695 25.4285L27.5643 25.7081ZM33.9404 37.1554V37.3804H34.5179V37.1554H33.9404ZM34.2292 37.0917H30.3668V37.6691H34.2292V37.0917ZM30.6212 37.2439L24.6964 26.2005L24.1876 26.4735L30.1124 37.5169L30.6212 37.2439ZM18.0297 23.6821H23.5608V23.1047H18.0297V23.6821ZM23.5608 23.6821C25.3984 23.6821 26.8917 23.2057 28.0077 22.2226L27.626 21.7893C26.6421 22.6561 25.298 23.1047 23.5608 23.1047V23.6821ZM28.0065 22.2237C29.1387 21.238 29.6993 19.9176 29.6993 18.2936H29.1219C29.1219 19.7694 28.62 20.9239 27.6273 21.7882L28.0065 22.2237ZM29.6993 18.2936C29.6993 16.5455 29.1724 15.1644 28.0837 14.1967L27.7001 14.6282C28.6363 15.4604 29.1219 16.6667 29.1219 18.2936H29.6993ZM28.085 14.1978C27.0144 13.2343 25.4856 12.7678 23.5439 12.755L23.5401 13.3324C25.3984 13.3447 26.7695 13.7907 27.6987 14.627L28.085 14.1978ZM23.542 12.755H18.0297V13.3325H23.542V12.755ZM17.741 13.0437V23.3934H18.3185V13.0437H17.741Z" fill="black"/>
</g>
<path d="M39.7564 7.20557L43.7414 3.2495" stroke="black" stroke-width="0.288711"/>
<path d="M43.7413 44.3623L40.0076 40.1702" stroke="black" stroke-width="0.288711"/>
<path d="M2.52551 3.21387L6.93066 6.70027" stroke="black" stroke-width="0.288711"/>
<path d="M2.31128 44.3623L6.25389 40.3643" stroke="black" stroke-width="0.288711"/>
<rect x="1.7339" y="2.53285" width="42.7293" height="42.5476" rx="2.88712" stroke="black" stroke-width="0.577423"/>
<rect x="0.290176" y="1.09486" width="45.6164" height="45.4226" rx="2.88712" stroke="black" stroke-width="0.577423"/>
<defs>
<filter id="filter0_d" x="13.8337" y="9.79248" width="22.7052" height="30.1861" filterUnits="userSpaceOnUse" color-interpolation-filters="sRGB">
<feFlood flood-opacity="0" result="BackgroundImageFix"/>
<feColorMatrix in="SourceAlpha" type="matrix" values="0 0 0 0 0 0 0 0 0 0 0 0 0 0 0 0 0 0 127 0"/>
<feOffset dx="0.866135" dy="1.15485"/>
<feGaussianBlur stdDeviation="0.577423"/>
<feColorMatrix type="matrix" values="0 0 0 0 0 0 0 0 0 0 0 0 0 0 0 0 0 0 0.25 0"/>
<feBlend mode="normal" in2="BackgroundImageFix" result="effect1_dropShadow"/>
<feBlend mode="normal" in="SourceGraphic" in2="effect1_dropShadow" result="shape"/>
</filter>
</defs>
</svg>