<svg width="242" height="46" viewBox="0 0 242 46" fill="none" xmlns="http://www.w3.org/2000/svg">
<path d="M65.4786 40L65.4681 34.6236L62.8009 39.1039H62.316L59.6489 34.6552V40H58.6369V32.6206H59.5013L62.5796 37.8073L65.6156 32.6206H66.4801L66.4906 40H65.4786ZM70.5923 34.3601C71.3653 34.3601 71.9557 34.5498 72.3633 34.9293C72.778 35.3088 72.9853 35.8746 72.9853 36.6266V40H72.026V39.2621C71.8573 39.5221 71.6148 39.7224 71.2986 39.863C70.9893 39.9965 70.6204 40.0633 70.1917 40.0633C69.5662 40.0633 69.0637 39.9122 68.6842 39.6099C68.3117 39.3077 68.1254 38.9107 68.1254 38.4187C68.1254 37.9268 68.3047 37.5332 68.6631 37.238C69.0215 36.9358 69.5908 36.7847 70.3709 36.7847H71.9733V36.5844C71.9733 36.1487 71.8467 35.8149 71.5937 35.5829C71.3407 35.351 70.9683 35.235 70.4763 35.235C70.146 35.235 69.8227 35.2913 69.5064 35.4037C69.1902 35.5091 68.9231 35.6532 68.7053 35.8359L68.2836 35.0769C68.5717 34.845 68.9161 34.6693 69.3167 34.5498C69.7173 34.4233 70.1425 34.3601 70.5923 34.3601ZM70.3603 39.2831C70.7469 39.2831 71.0807 39.1988 71.3618 39.0301C71.6429 38.8544 71.8467 38.6085 71.9733 38.2922V37.5121H70.413C69.5556 37.5121 69.1269 37.8002 69.1269 38.3765C69.1269 38.6577 69.2359 38.879 69.4537 39.0407C69.6716 39.2023 69.9738 39.2831 70.3603 39.2831ZM80.16 32.1779V40H79.1901V39.1145C78.9652 39.4237 78.6806 39.6591 78.3362 39.8208C77.9918 39.9824 77.6123 40.0633 77.1977 40.0633C76.6565 40.0633 76.1716 39.9438 75.7429 39.7048C75.3142 39.4659 74.9769 39.132 74.7309 38.7033C74.4919 38.2676 74.3724 37.7686 74.3724 37.2064C74.3724 36.6442 74.4919 36.1487 74.7309 35.72C74.9769 35.2913 75.3142 34.9574 75.7429 34.7185C76.1716 34.4795 76.6565 34.3601 77.1977 34.3601C77.5983 34.3601 77.9672 34.4374 78.3046 34.592C78.6419 34.7396 78.9231 34.961 79.1479 35.2561V32.1779H80.16ZM77.282 39.1777C77.6334 39.1777 77.9532 39.0969 78.2413 38.9353C78.5295 38.7666 78.7544 38.5347 78.916 38.2395C79.0777 37.9373 79.1585 37.5929 79.1585 37.2064C79.1585 36.8198 79.0777 36.479 78.916 36.1838C78.7544 35.8816 78.5295 35.6497 78.2413 35.4881C77.9532 35.3264 77.6334 35.2456 77.282 35.2456C76.9236 35.2456 76.6003 35.3264 76.3122 35.4881C76.031 35.6497 75.8062 35.8816 75.6375 36.1838C75.4758 36.479 75.395 36.8198 75.395 37.2064C75.395 37.5929 75.4758 37.9373 75.6375 38.2395C75.8062 38.5347 76.031 38.7666 76.3122 38.9353C76.6003 39.0969 76.9236 39.1777 77.282 39.1777ZM87.1244 37.238C87.1244 37.3153 87.1174 37.4172 87.1033 37.5437H82.5703C82.6335 38.0357 82.8479 38.4328 83.2133 38.735C83.5858 39.0301 84.0462 39.1777 84.5943 39.1777C85.262 39.1777 85.7996 38.9528 86.2073 38.503L86.766 39.1566C86.513 39.4518 86.1967 39.6767 85.8172 39.8313C85.4447 39.9859 85.0266 40.0633 84.5627 40.0633C83.9724 40.0633 83.4488 39.9438 82.992 39.7048C82.5351 39.4588 82.1802 39.118 81.9272 38.6823C81.6813 38.2465 81.5583 37.7546 81.5583 37.2064C81.5583 36.6652 81.6777 36.1768 81.9167 35.7411C82.1627 35.3053 82.4965 34.968 82.9182 34.729C83.3469 34.4831 83.8283 34.3601 84.3624 34.3601C84.8965 34.3601 85.3709 34.4831 85.7856 34.729C86.2073 34.968 86.5341 35.3053 86.766 35.7411C87.0049 36.1768 87.1244 36.6758 87.1244 37.238ZM84.3624 35.214C83.8775 35.214 83.4699 35.3615 83.1396 35.6567C82.8163 35.9519 82.6265 36.3384 82.5703 36.8163H86.1545C86.0983 36.3455 85.9051 35.9624 85.5747 35.6673C85.2515 35.3651 84.8473 35.214 84.3624 35.214ZM99.8154 34.4128L97.7281 40H96.7583L95.1453 35.7621L93.5113 40H92.5415L90.4647 34.4128H91.424L93.0475 38.8615L94.7342 34.4128H95.5881L97.2432 38.8826L98.9088 34.4128H99.8154ZM100.842 34.4128H101.854V40H100.842V34.4128ZM101.348 33.3375C101.152 33.3375 100.986 33.2742 100.853 33.1477C100.726 33.0212 100.663 32.8666 100.663 32.6839C100.663 32.5012 100.726 32.3466 100.853 32.2201C100.986 32.0865 101.152 32.0198 101.348 32.0198C101.545 32.0198 101.707 32.083 101.833 32.2095C101.967 32.329 102.034 32.4801 102.034 32.6628C102.034 32.8526 101.967 33.0142 101.833 33.1477C101.707 33.2742 101.545 33.3375 101.348 33.3375ZM106.928 39.6732C106.781 39.7997 106.598 39.8981 106.38 39.9684C106.162 40.0316 105.937 40.0633 105.705 40.0633C105.143 40.0633 104.707 39.9122 104.398 39.6099C104.089 39.3077 103.934 38.8755 103.934 38.3133V35.2456H102.985V34.4128H103.934V33.1899H104.946V34.4128H106.549V35.2456H104.946V38.2711C104.946 38.5733 105.02 38.8052 105.168 38.9669C105.322 39.1285 105.54 39.2094 105.821 39.2094C106.13 39.2094 106.394 39.1215 106.612 38.9458L106.928 39.6732ZM111.135 34.3601C111.845 34.3601 112.407 34.5674 112.822 34.982C113.243 35.3897 113.454 35.9906 113.454 36.7847V40H112.442V36.9007C112.442 36.3595 112.312 35.9519 112.052 35.6778C111.792 35.4037 111.42 35.2667 110.935 35.2667C110.387 35.2667 109.954 35.4283 109.638 35.7516C109.322 36.0679 109.164 36.5247 109.164 37.1221V40H108.152V32.1779H109.164V35.2034C109.375 34.9364 109.649 34.729 109.986 34.5814C110.33 34.4339 110.713 34.3601 111.135 34.3601ZM143.638 34.4128H144.65V40H143.638V34.4128ZM144.144 33.3375C143.947 33.3375 143.782 33.2742 143.649 33.1477C143.522 33.0212 143.459 32.8666 143.459 32.6839C143.459 32.5012 143.522 32.3466 143.649 32.2201C143.782 32.0865 143.947 32.0198 144.144 32.0198C144.341 32.0198 144.503 32.083 144.629 32.2095C144.763 32.329 144.829 32.4801 144.829 32.6628C144.829 32.8526 144.763 33.0142 144.629 33.1477C144.503 33.2742 144.341 33.3375 144.144 33.3375ZM149.566 34.3601C150.276 34.3601 150.838 34.5674 151.252 34.982C151.674 35.3897 151.885 35.9906 151.885 36.7847V40H150.873V36.9007C150.873 36.3595 150.743 35.9519 150.483 35.6778C150.223 35.4037 149.85 35.2667 149.365 35.2667C148.817 35.2667 148.385 35.4283 148.069 35.7516C147.753 36.0679 147.594 36.5247 147.594 37.1221V40H146.582V34.4128H147.552V35.2561C147.756 34.968 148.03 34.7466 148.375 34.592C148.726 34.4374 149.123 34.3601 149.566 34.3601ZM161.702 36.1733C162.131 36.2928 162.468 36.5106 162.714 36.8269C162.96 37.1361 163.083 37.5297 163.083 38.0076C163.083 38.6471 162.84 39.1391 162.355 39.4834C161.878 39.8278 161.178 40 160.258 40H156.737V32.6206H160.047C160.89 32.6206 161.54 32.7893 161.997 33.1267C162.461 33.464 162.693 33.9314 162.693 34.5287C162.693 34.9153 162.601 35.2491 162.419 35.5302C162.243 35.8113 162.004 36.0257 161.702 36.1733ZM157.791 33.4745V35.8359H159.952C160.493 35.8359 160.908 35.7375 161.196 35.5408C161.491 35.337 161.639 35.0418 161.639 34.6552C161.639 34.2687 161.491 33.977 161.196 33.7803C160.908 33.5764 160.493 33.4745 159.952 33.4745H157.791ZM160.215 39.1461C160.813 39.1461 161.263 39.0477 161.565 38.8509C161.867 38.6541 162.018 38.3449 162.018 37.9232C162.018 37.101 161.417 36.6898 160.215 36.6898H157.791V39.1461H160.215ZM169.617 37.238C169.617 37.3153 169.61 37.4172 169.596 37.5437H165.063C165.126 38.0357 165.341 38.4328 165.706 38.735C166.079 39.0301 166.539 39.1777 167.087 39.1777C167.755 39.1777 168.292 38.9528 168.7 38.503L169.259 39.1566C169.006 39.4518 168.689 39.6767 168.31 39.8313C167.937 39.9859 167.519 40.0633 167.055 40.0633C166.465 40.0633 165.941 39.9438 165.485 39.7048C165.028 39.4588 164.673 39.118 164.42 38.6823C164.174 38.2465 164.051 37.7546 164.051 37.2064C164.051 36.6652 164.17 36.1768 164.409 35.7411C164.655 35.3053 164.989 34.968 165.411 34.729C165.84 34.4831 166.321 34.3601 166.855 34.3601C167.389 34.3601 167.864 34.4831 168.278 34.729C168.7 34.968 169.027 35.3053 169.259 35.7411C169.498 36.1768 169.617 36.6758 169.617 37.238ZM166.855 35.214C166.37 35.214 165.963 35.3615 165.632 35.6567C165.309 35.9519 165.119 36.3384 165.063 36.8163H168.647C168.591 36.3455 168.398 35.9624 168.067 35.6673C167.744 35.3651 167.34 35.214 166.855 35.214ZM174.006 34.3601C174.716 34.3601 175.278 34.5674 175.692 34.982C176.114 35.3897 176.325 35.9906 176.325 36.7847V40H175.313V36.9007C175.313 36.3595 175.183 35.9519 174.923 35.6778C174.663 35.4037 174.29 35.2667 173.805 35.2667C173.257 35.2667 172.825 35.4283 172.509 35.7516C172.193 36.0679 172.034 36.5247 172.034 37.1221V40H171.022V34.4128H171.992V35.2561C172.196 34.968 172.47 34.7466 172.815 34.592C173.166 34.4374 173.563 34.3601 174.006 34.3601ZM183.574 34.4128V39.241C183.574 40.2179 183.331 40.9382 182.846 41.4021C182.361 41.873 181.637 42.1084 180.675 42.1084C180.147 42.1084 179.645 42.0346 179.167 41.887C178.689 41.7464 178.303 41.5426 178.007 41.2756L178.492 40.4955C178.752 40.7204 179.072 40.8961 179.452 41.0226C179.838 41.1561 180.235 41.2229 180.643 41.2229C181.297 41.2229 181.778 41.0682 182.087 40.759C182.403 40.4498 182.562 39.9789 182.562 39.3464V38.9036C182.323 39.1918 182.027 39.4097 181.676 39.5572C181.332 39.6978 180.956 39.7681 180.548 39.7681C180.014 39.7681 179.529 39.6556 179.093 39.4307C178.665 39.1988 178.327 38.879 178.081 38.4714C177.835 38.0568 177.712 37.5859 177.712 37.0588C177.712 36.5317 177.835 36.0643 178.081 35.6567C178.327 35.2421 178.665 34.9223 179.093 34.6974C179.529 34.4725 180.014 34.3601 180.548 34.3601C180.97 34.3601 181.36 34.4374 181.718 34.592C182.084 34.7466 182.382 34.975 182.614 35.2772V34.4128H183.574ZM180.664 38.8826C181.029 38.8826 181.356 38.8052 181.644 38.6506C181.94 38.496 182.168 38.2817 182.33 38.0076C182.498 37.7265 182.583 37.4102 182.583 37.0588C182.583 36.5176 182.403 36.0819 182.045 35.7516C181.687 35.4143 181.226 35.2456 180.664 35.2456C180.095 35.2456 179.631 35.4143 179.272 35.7516C178.914 36.0819 178.735 36.5176 178.735 37.0588C178.735 37.4102 178.816 37.7265 178.977 38.0076C179.146 38.2817 179.374 38.496 179.663 38.6506C179.958 38.8052 180.292 38.8826 180.664 38.8826ZM187.542 34.3601C188.315 34.3601 188.905 34.5498 189.313 34.9293C189.728 35.3088 189.935 35.8746 189.935 36.6266V40H188.976V39.2621C188.807 39.5221 188.564 39.7224 188.248 39.863C187.939 39.9965 187.57 40.0633 187.141 40.0633C186.516 40.0633 186.013 39.9122 185.634 39.6099C185.261 39.3077 185.075 38.9107 185.075 38.4187C185.075 37.9268 185.254 37.5332 185.613 37.238C185.971 36.9358 186.54 36.7847 187.32 36.7847H188.923V36.5844C188.923 36.1487 188.796 35.8149 188.543 35.5829C188.29 35.351 187.918 35.235 187.426 35.235C187.096 35.235 186.772 35.2913 186.456 35.4037C186.14 35.5091 185.873 35.6532 185.655 35.8359L185.233 35.0769C185.521 34.845 185.866 34.6693 186.266 34.5498C186.667 34.4233 187.092 34.3601 187.542 34.3601ZM187.31 39.2831C187.696 39.2831 188.03 39.1988 188.311 39.0301C188.593 38.8544 188.796 38.6085 188.923 38.2922V37.5121H187.363C186.505 37.5121 186.077 37.8002 186.077 38.3765C186.077 38.6577 186.185 38.879 186.403 39.0407C186.621 39.2023 186.923 39.2831 187.31 39.2831ZM191.808 32.1779H192.82V40H191.808V32.1779ZM195.005 38.619C195.202 38.619 195.363 38.6893 195.49 38.8298C195.624 38.9634 195.69 39.132 195.69 39.3359C195.69 39.4413 195.676 39.5432 195.648 39.6416C195.627 39.74 195.581 39.8911 195.511 40.0949L195.016 41.5602H194.351L194.741 39.9895C194.608 39.9403 194.499 39.8594 194.415 39.747C194.337 39.6275 194.299 39.4905 194.299 39.3359C194.299 39.125 194.366 38.9528 194.499 38.8193C194.633 38.6858 194.801 38.619 195.005 38.619ZM197.288 32.6206H198.342V40H197.288V32.6206ZM203.387 34.3601C204.097 34.3601 204.659 34.5674 205.074 34.982C205.496 35.3897 205.707 35.9906 205.707 36.7847V40H204.694V36.9007C204.694 36.3595 204.564 35.9519 204.304 35.6778C204.044 35.4037 203.672 35.2667 203.187 35.2667C202.639 35.2667 202.207 35.4283 201.89 35.7516C201.574 36.0679 201.416 36.5247 201.416 37.1221V40H200.404V34.4128H201.374V35.2561C201.578 34.968 201.852 34.7466 202.196 34.592C202.547 34.4374 202.945 34.3601 203.387 34.3601ZM212.881 32.1779V40H211.911V39.1145C211.687 39.4237 211.402 39.6591 211.058 39.8208C210.713 39.9824 210.334 40.0633 209.919 40.0633C209.378 40.0633 208.893 39.9438 208.464 39.7048C208.036 39.4659 207.698 39.132 207.452 38.7033C207.213 38.2676 207.094 37.7686 207.094 37.2064C207.094 36.6442 207.213 36.1487 207.452 35.72C207.698 35.2913 208.036 34.9574 208.464 34.7185C208.893 34.4795 209.378 34.3601 209.919 34.3601C210.32 34.3601 210.689 34.4374 211.026 34.592C211.363 34.7396 211.644 34.961 211.869 35.2561V32.1779H212.881ZM210.003 39.1777C210.355 39.1777 210.675 39.0969 210.963 38.9353C211.251 38.7666 211.476 38.5347 211.637 38.2395C211.799 37.9373 211.88 37.5929 211.88 37.2064C211.88 36.8198 211.799 36.479 211.637 36.1838C211.476 35.8816 211.251 35.6497 210.963 35.4881C210.675 35.3264 210.355 35.2456 210.003 35.2456C209.645 35.2456 209.322 35.3264 209.033 35.4881C208.752 35.6497 208.527 35.8816 208.359 36.1838C208.197 36.479 208.116 36.8198 208.116 37.2064C208.116 37.5929 208.197 37.9373 208.359 38.2395C208.527 38.5347 208.752 38.7666 209.033 38.9353C209.322 39.0969 209.645 39.1777 210.003 39.1777ZM214.796 34.4128H215.808V40H214.796V34.4128ZM215.302 33.3375C215.105 33.3375 214.94 33.2742 214.807 33.1477C214.68 33.0212 214.617 32.8666 214.617 32.6839C214.617 32.5012 214.68 32.3466 214.807 32.2201C214.94 32.0865 215.105 32.0198 215.302 32.0198C215.499 32.0198 215.661 32.083 215.787 32.2095C215.921 32.329 215.987 32.4801 215.987 32.6628C215.987 32.8526 215.921 33.0142 215.787 33.1477C215.661 33.2742 215.499 33.3375 215.302 33.3375ZM219.775 34.3601C220.548 34.3601 221.138 34.5498 221.546 34.9293C221.961 35.3088 222.168 35.8746 222.168 36.6266V40H221.209V39.2621C221.04 39.5221 220.798 39.7224 220.481 39.863C220.172 39.9965 219.803 40.0633 219.374 40.0633C218.749 40.0633 218.246 39.9122 217.867 39.6099C217.494 39.3077 217.308 38.9107 217.308 38.4187C217.308 37.9268 217.487 37.5332 217.846 37.238C218.204 36.9358 218.774 36.7847 219.554 36.7847H221.156V36.5844C221.156 36.1487 221.03 35.8149 220.777 35.5829C220.524 35.351 220.151 35.235 219.659 35.235C219.329 35.235 219.006 35.2913 218.689 35.4037C218.373 35.5091 218.106 35.6532 217.888 35.8359L217.466 35.0769C217.755 34.845 218.099 34.6693 218.499 34.5498C218.9 34.4233 219.325 34.3601 219.775 34.3601ZM219.543 39.2831C219.93 39.2831 220.264 39.1988 220.545 39.0301C220.826 38.8544 221.03 38.6085 221.156 38.2922V37.5121H219.596C218.738 37.5121 218.31 37.8002 218.31 38.3765C218.31 38.6577 218.419 38.879 218.637 39.0407C218.854 39.2023 219.157 39.2831 219.543 39.2831ZM224.283 40.0633C224.087 40.0633 223.918 39.9965 223.777 39.863C223.637 39.7224 223.567 39.5467 223.567 39.3359C223.567 39.132 223.637 38.9634 223.777 38.8298C223.918 38.6893 224.087 38.619 224.283 38.619C224.48 38.619 224.645 38.6858 224.779 38.8193C224.912 38.9528 224.979 39.125 224.979 39.3359C224.979 39.5467 224.909 39.7224 224.768 39.863C224.635 39.9965 224.473 40.0633 224.283 40.0633Z" fill="#878A8F"/>
<path d="M135.422 30.4313C135.212 29.9463 134.91 29.5069 134.533 29.1375C134.155 28.7671 133.709 28.4727 133.22 28.2703C132.713 28.0597 132.169 27.9519 131.62 27.9531C130.85 27.9531 130.098 28.1641 129.445 28.5625C129.289 28.6578 129.141 28.7625 129 28.8766C128.859 28.7625 128.711 28.6578 128.555 28.5625C127.902 28.1641 127.15 27.9531 126.38 27.9531C125.825 27.9531 125.287 28.0594 124.78 28.2703C124.289 28.4734 123.847 28.7656 123.467 29.1375C123.089 29.5065 122.787 29.946 122.578 30.4313C122.361 30.9359 122.25 31.4719 122.25 32.0234C122.25 32.5438 122.356 33.0859 122.567 33.6375C122.744 34.0984 122.997 34.5766 123.32 35.0594C123.833 35.8234 124.537 36.6203 125.412 37.4281C126.862 38.7672 128.298 39.6922 128.359 39.7297L128.73 39.9672C128.894 40.0719 129.105 40.0719 129.269 39.9672L129.639 39.7297C129.7 39.6906 131.134 38.7672 132.586 37.4281C133.461 36.6203 134.166 35.8234 134.678 35.0594C135.002 34.5766 135.256 34.0984 135.431 33.6375C135.642 33.0859 135.748 32.5438 135.748 32.0234C135.75 31.4719 135.639 30.9359 135.422 30.4313V30.4313Z" fill="#878A8F"/>
<path d="M79.2975 21.0829V22H73.9949V21.2831L76.9994 18.3841C77.3649 18.0327 77.6108 17.7305 77.7373 17.4775C77.8638 17.2175 77.9271 16.9574 77.9271 16.6974C77.9271 16.3109 77.79 16.0122 77.516 15.8013C77.2489 15.5835 76.8624 15.4745 76.3563 15.4745C75.5411 15.4745 74.9121 15.7416 74.4693 16.2757L73.7525 15.6538C74.0406 15.3024 74.4166 15.0283 74.8805 14.8315C75.3513 14.6347 75.8749 14.5363 76.4512 14.5363C77.2243 14.5363 77.8392 14.7226 78.2961 15.095C78.7529 15.4605 78.9813 15.9595 78.9813 16.592C78.9813 16.9856 78.8969 17.358 78.7283 17.7094C78.5596 18.0608 78.2398 18.4614 77.769 18.9112L75.513 21.0829H79.2975ZM83.1484 22.0843C82.5651 22.0843 82.045 21.9367 81.5882 21.6416C81.1384 21.3394 80.7835 20.9036 80.5235 20.3344C80.2634 19.7651 80.1334 19.0904 80.1334 18.3103C80.1334 17.5302 80.2634 16.8555 80.5235 16.2863C80.7835 15.717 81.1384 15.2848 81.5882 14.9896C82.045 14.6874 82.5651 14.5363 83.1484 14.5363C83.7247 14.5363 84.2377 14.6874 84.6875 14.9896C85.1443 15.2848 85.5028 15.717 85.7628 16.2863C86.0228 16.8555 86.1528 17.5302 86.1528 18.3103C86.1528 19.0904 86.0228 19.7651 85.7628 20.3344C85.5028 20.9036 85.1443 21.3394 84.6875 21.6416C84.2377 21.9367 83.7247 22.0843 83.1484 22.0843ZM83.1484 21.1461C83.7387 21.1461 84.2096 20.9036 84.561 20.4187C84.9194 19.9338 85.0987 19.231 85.0987 18.3103C85.0987 17.3897 84.9194 16.6869 84.561 16.2019C84.2096 15.717 83.7387 15.4745 83.1484 15.4745C82.551 15.4745 82.0731 15.717 81.7147 16.2019C81.3633 16.6869 81.1876 17.3897 81.1876 18.3103C81.1876 19.231 81.3633 19.9338 81.7147 20.4187C82.0731 20.9036 82.551 21.1461 83.1484 21.1461ZM89.4215 14.6206V22H88.3779V15.5378H86.7122V14.6206H89.4215ZM93.4287 14.5363C94.4196 14.5363 95.1822 14.8561 95.7163 15.4956C96.2574 16.1352 96.528 17.0418 96.528 18.2154C96.528 19.0377 96.3804 19.7405 96.0852 20.3238C95.7971 20.9001 95.3895 21.3394 94.8624 21.6416C94.3423 21.9367 93.7344 22.0843 93.0386 22.0843C92.6802 22.0843 92.3429 22.0492 92.0266 21.9789C91.7103 21.9016 91.4363 21.7927 91.2043 21.6521L91.6049 20.8298C91.9634 21.0618 92.4377 21.1777 93.0281 21.1777C93.7941 21.1777 94.3915 20.9423 94.8202 20.4714C95.2559 19.9935 95.4738 19.3013 95.4738 18.3947V18.1311C95.263 18.4474 94.9713 18.6898 94.5988 18.8585C94.2264 19.0201 93.8082 19.101 93.3443 19.101C92.8594 19.101 92.4237 19.0096 92.0371 18.8269C91.6576 18.6442 91.3589 18.3841 91.1411 18.0468C90.9302 17.7024 90.8248 17.3088 90.8248 16.8661C90.8248 16.4022 90.9373 15.9946 91.1622 15.6432C91.3941 15.2918 91.7068 15.0212 92.1004 14.8315C92.494 14.6347 92.9367 14.5363 93.4287 14.5363ZM93.5236 18.2471C93.8539 18.2471 94.149 18.1838 94.4091 18.0573C94.6691 17.9308 94.8694 17.7586 95.01 17.5408C95.1576 17.3229 95.2314 17.0804 95.2314 16.8134C95.2314 16.5533 95.1611 16.3179 95.0205 16.1071C94.887 15.8892 94.6867 15.717 94.4196 15.5905C94.1596 15.457 93.8433 15.3902 93.4708 15.3902C92.9859 15.3902 92.5924 15.5202 92.2902 15.7803C91.995 16.0403 91.8474 16.3882 91.8474 16.8239C91.8474 17.2596 91.9985 17.6075 92.3007 17.8676C92.6029 18.1206 93.0105 18.2471 93.5236 18.2471ZM125.377 21.0829V22H120.075V21.2831L123.079 18.3841C123.445 18.0327 123.691 17.7305 123.817 17.4775C123.944 17.2175 124.007 16.9574 124.007 16.6974C124.007 16.3109 123.87 16.0122 123.596 15.8013C123.329 15.5835 122.942 15.4745 122.436 15.4745C121.621 15.4745 120.992 15.7416 120.549 16.2757L119.832 15.6538C120.12 15.3024 120.496 15.0283 120.96 14.8315C121.431 14.6347 121.955 14.5363 122.531 14.5363C123.304 14.5363 123.919 14.7226 124.376 15.095C124.833 15.4605 125.061 15.9595 125.061 16.592C125.061 16.9856 124.977 17.358 124.808 17.7094C124.639 18.0608 124.32 18.4614 123.849 18.9112L121.593 21.0829H125.377ZM129.228 22.0843C128.645 22.0843 128.125 21.9367 127.668 21.6416C127.218 21.3394 126.863 20.9036 126.603 20.3344C126.343 19.7651 126.213 19.0904 126.213 18.3103C126.213 17.5302 126.343 16.8555 126.603 16.2863C126.863 15.717 127.218 15.2848 127.668 14.9896C128.125 14.6874 128.645 14.5363 129.228 14.5363C129.804 14.5363 130.318 14.6874 130.767 14.9896C131.224 15.2848 131.583 15.717 131.843 16.2863C132.103 16.8555 132.233 17.5302 132.233 18.3103C132.233 19.0904 132.103 19.7651 131.843 20.3344C131.583 20.9036 131.224 21.3394 130.767 21.6416C130.318 21.9367 129.804 22.0843 129.228 22.0843ZM129.228 21.1461C129.819 21.1461 130.289 20.9036 130.641 20.4187C130.999 19.9338 131.178 19.231 131.178 18.3103C131.178 17.3897 130.999 16.6869 130.641 16.2019C130.289 15.717 129.819 15.4745 129.228 15.4745C128.631 15.4745 128.153 15.717 127.794 16.2019C127.443 16.6869 127.267 17.3897 127.267 18.3103C127.267 19.231 127.443 19.9338 127.794 20.4187C128.153 20.9036 128.631 21.1461 129.228 21.1461ZM135.967 17.72C136.691 17.7903 137.242 18.0151 137.622 18.3947C138.001 18.7671 138.191 19.245 138.191 19.8284C138.191 20.25 138.086 20.6331 137.875 20.9774C137.664 21.3148 137.348 21.5854 136.926 21.7892C136.512 21.9859 136.002 22.0843 135.398 22.0843C134.871 22.0843 134.364 22.007 133.88 21.8524C133.395 21.6908 132.998 21.4694 132.688 21.1883L133.173 20.3555C133.426 20.5944 133.75 20.7877 134.143 20.9353C134.537 21.0758 134.955 21.1461 135.398 21.1461C135.946 21.1461 136.371 21.0301 136.673 20.7982C136.982 20.5663 137.137 20.2465 137.137 19.8389C137.137 19.4313 136.986 19.115 136.684 18.8901C136.382 18.6652 135.925 18.5528 135.313 18.5528H134.723V17.8149L136.578 15.5378H133.026V14.6206H137.896V15.3375L135.967 17.72ZM142.189 22.0843C141.606 22.0843 141.086 21.9367 140.629 21.6416C140.179 21.3394 139.825 20.9036 139.564 20.3344C139.304 19.7651 139.174 19.0904 139.174 18.3103C139.174 17.5302 139.304 16.8555 139.564 16.2863C139.825 15.717 140.179 15.2848 140.629 14.9896C141.086 14.6874 141.606 14.5363 142.189 14.5363C142.766 14.5363 143.279 14.6874 143.729 14.9896C144.185 15.2848 144.544 15.717 144.804 16.2863C145.064 16.8555 145.194 17.5302 145.194 18.3103C145.194 19.0904 145.064 19.7651 144.804 20.3344C144.544 20.9036 144.185 21.3394 143.729 21.6416C143.279 21.9367 142.766 22.0843 142.189 22.0843ZM142.189 21.1461C142.78 21.1461 143.251 20.9036 143.602 20.4187C143.96 19.9338 144.14 19.231 144.14 18.3103C144.14 17.3897 143.96 16.6869 143.602 16.2019C143.251 15.717 142.78 15.4745 142.189 15.4745C141.592 15.4745 141.114 15.717 140.756 16.2019C140.404 16.6869 140.229 17.3897 140.229 18.3103C140.229 19.231 140.404 19.9338 140.756 20.4187C141.114 20.9036 141.592 21.1461 142.189 21.1461ZM154.571 22L152.98 19.7335C152.783 19.7475 152.628 19.7546 152.516 19.7546H150.692V22H149.638V14.6206H152.516C153.472 14.6206 154.224 14.8491 154.772 15.3059C155.32 15.7627 155.594 16.3917 155.594 17.1929C155.594 17.7621 155.453 18.2471 155.172 18.6477C154.891 19.0483 154.491 19.3399 153.971 19.5226L155.72 22H154.571ZM152.484 18.8585C153.152 18.8585 153.661 18.7144 154.013 18.4263C154.364 18.1381 154.54 17.727 154.54 17.1929C154.54 16.6588 154.364 16.2511 154.013 15.97C153.661 15.6819 153.152 15.5378 152.484 15.5378H150.692V18.8585H152.484ZM157.15 16.4128H158.162V22H157.15V16.4128ZM157.656 15.3375C157.459 15.3375 157.294 15.2742 157.16 15.1477C157.034 15.0212 156.97 14.8666 156.97 14.6839C156.97 14.5012 157.034 14.3466 157.16 14.2201C157.294 14.0865 157.459 14.0198 157.656 14.0198C157.852 14.0198 158.014 14.083 158.141 14.2095C158.274 14.329 158.341 14.4801 158.341 14.6628C158.341 14.8526 158.274 15.0142 158.141 15.1477C158.014 15.2742 157.852 15.3375 157.656 15.3375ZM161.696 22.0633C161.239 22.0633 160.8 22.0035 160.379 21.884C159.957 21.7575 159.627 21.5994 159.388 21.4097L159.809 20.6085C160.055 20.7842 160.354 20.9247 160.705 21.0301C161.057 21.1356 161.412 21.1883 161.77 21.1883C162.656 21.1883 163.098 20.9353 163.098 20.4293C163.098 20.2606 163.039 20.127 162.919 20.0287C162.8 19.9303 162.649 19.86 162.466 19.8178C162.29 19.7686 162.037 19.7159 161.707 19.6597C161.257 19.5894 160.888 19.5086 160.6 19.4172C160.319 19.3259 160.076 19.1712 159.873 18.9534C159.669 18.7355 159.567 18.4298 159.567 18.0362C159.567 17.5302 159.778 17.1261 160.199 16.8239C160.621 16.5147 161.187 16.3601 161.897 16.3601C162.269 16.3601 162.642 16.4057 163.014 16.4971C163.387 16.5885 163.692 16.7115 163.931 16.8661L163.499 17.6673C163.042 17.3721 162.504 17.2245 161.886 17.2245C161.457 17.2245 161.131 17.2948 160.906 17.4353C160.681 17.5759 160.568 17.7621 160.568 17.9941C160.568 18.1768 160.632 18.3209 160.758 18.4263C160.885 18.5317 161.039 18.609 161.222 18.6582C161.412 18.7074 161.675 18.7636 162.013 18.8269C162.462 18.9042 162.824 18.9885 163.098 19.0799C163.379 19.1642 163.618 19.3118 163.815 19.5226C164.012 19.7335 164.11 20.0287 164.11 20.4082C164.11 20.9142 163.893 21.3183 163.457 21.6205C163.028 21.9157 162.441 22.0633 161.696 22.0633ZM168.359 16.3601C169.068 16.3601 169.631 16.5674 170.045 16.982C170.467 17.3897 170.678 17.9906 170.678 18.7847V22H169.666V18.9007C169.666 18.3595 169.536 17.9519 169.276 17.6778C169.016 17.4037 168.643 17.2667 168.158 17.2667C167.61 17.2667 167.178 17.4283 166.862 17.7516C166.545 18.0679 166.387 18.5247 166.387 19.1221V22H165.375V14.1779H166.387V17.2034C166.598 16.9364 166.872 16.729 167.209 16.5814C167.554 16.4339 167.937 16.3601 168.359 16.3601ZM174.585 16.3601C175.358 16.3601 175.949 16.5498 176.356 16.9293C176.771 17.3088 176.978 17.8746 176.978 18.6266V22H176.019V21.2621C175.85 21.5221 175.608 21.7224 175.292 21.863C174.982 21.9965 174.613 22.0633 174.185 22.0633C173.559 22.0633 173.057 21.9122 172.677 21.6099C172.305 21.3077 172.118 20.9107 172.118 20.4187C172.118 19.9268 172.298 19.5332 172.656 19.238C173.015 18.9358 173.584 18.7847 174.364 18.7847H175.966V18.5844C175.966 18.1487 175.84 17.8149 175.587 17.5829C175.334 17.351 174.961 17.235 174.469 17.235C174.139 17.235 173.816 17.2913 173.499 17.4037C173.183 17.5091 172.916 17.6532 172.698 17.8359L172.277 17.0769C172.565 16.845 172.909 16.6693 173.31 16.5498C173.71 16.4233 174.135 16.3601 174.585 16.3601ZM174.353 21.2831C174.74 21.2831 175.074 21.1988 175.355 21.0301C175.636 20.8544 175.84 20.6085 175.966 20.2922V19.5121H174.406C173.549 19.5121 173.12 19.8002 173.12 20.3765C173.12 20.6577 173.229 20.879 173.447 21.0407C173.665 21.2023 173.967 21.2831 174.353 21.2831ZM183.692 16.4128L181.247 22H180.214L177.768 16.4128H178.822L180.741 20.8931L182.701 16.4128H183.692ZM192.728 18.2682H193.74V21.1461C193.375 21.4483 192.95 21.6802 192.465 21.8419C191.98 22.0035 191.474 22.0843 190.947 22.0843C190.202 22.0843 189.531 21.9227 188.933 21.5994C188.336 21.2691 187.865 20.8193 187.521 20.25C187.183 19.6737 187.015 19.0272 187.015 18.3103C187.015 17.5935 187.183 16.9469 187.521 16.3706C187.865 15.7943 188.336 15.3445 188.933 15.0212C189.538 14.698 190.216 14.5363 190.968 14.5363C191.558 14.5363 192.092 14.6347 192.57 14.8315C193.055 15.0212 193.466 15.3024 193.804 15.6748L193.15 16.3284C192.56 15.7592 191.846 15.4745 191.01 15.4745C190.448 15.4745 189.942 15.5975 189.492 15.8435C189.049 16.0825 188.701 16.4198 188.448 16.8555C188.195 17.2842 188.069 17.7692 188.069 18.3103C188.069 18.8444 188.195 19.3294 188.448 19.7651C188.701 20.1938 189.049 20.5312 189.492 20.7771C189.942 21.0231 190.444 21.1461 190.999 21.1461C191.66 21.1461 192.236 20.988 192.728 20.6717V18.2682ZM198.595 16.3601C199.304 16.3601 199.867 16.5674 200.281 16.982C200.703 17.3897 200.914 17.9906 200.914 18.7847V22H199.902V18.9007C199.902 18.3595 199.772 17.9519 199.512 17.6778C199.252 17.4037 198.879 17.2667 198.394 17.2667C197.846 17.2667 197.414 17.4283 197.098 17.7516C196.781 18.0679 196.623 18.5247 196.623 19.1221V22H195.611V14.1779H196.623V17.2034C196.834 16.9364 197.108 16.729 197.445 16.5814C197.79 16.4339 198.173 16.3601 198.595 16.3601ZM205.211 22.0633C204.655 22.0633 204.156 21.9403 203.714 21.6943C203.271 21.4483 202.923 21.111 202.67 20.6823C202.424 20.2465 202.301 19.7546 202.301 19.2064C202.301 18.6582 202.424 18.1698 202.67 17.7411C202.923 17.3053 203.271 16.968 203.714 16.729C204.156 16.4831 204.655 16.3601 205.211 16.3601C205.766 16.3601 206.261 16.4831 206.697 16.729C207.14 16.968 207.484 17.3053 207.73 17.7411C207.983 18.1698 208.11 18.6582 208.11 19.2064C208.11 19.7546 207.983 20.2465 207.73 20.6823C207.484 21.111 207.14 21.4483 206.697 21.6943C206.261 21.9403 205.766 22.0633 205.211 22.0633ZM205.211 21.1777C205.569 21.1777 205.889 21.0969 206.17 20.9353C206.458 20.7666 206.683 20.5347 206.845 20.2395C207.006 19.9373 207.087 19.5929 207.087 19.2064C207.087 18.8198 207.006 18.479 206.845 18.1838C206.683 17.8816 206.458 17.6497 206.17 17.4881C205.889 17.3264 205.569 17.2456 205.211 17.2456C204.852 17.2456 204.529 17.3264 204.241 17.4881C203.96 17.6497 203.735 17.8816 203.566 18.1838C203.404 18.479 203.324 18.8198 203.324 19.2064C203.324 19.5929 203.404 19.9373 203.566 20.2395C203.735 20.5347 203.96 20.7666 204.241 20.9353C204.529 21.0969 204.852 21.1777 205.211 21.1777ZM211.112 22.0633C210.655 22.0633 210.216 22.0035 209.794 21.884C209.372 21.7575 209.042 21.5994 208.803 21.4097L209.225 20.6085C209.471 20.7842 209.769 20.9247 210.121 21.0301C210.472 21.1356 210.827 21.1883 211.185 21.1883C212.071 21.1883 212.514 20.9353 212.514 20.4293C212.514 20.2606 212.454 20.127 212.334 20.0287C212.215 19.9303 212.064 19.86 211.881 19.8178C211.705 19.7686 211.452 19.7159 211.122 19.6597C210.672 19.5894 210.303 19.5086 210.015 19.4172C209.734 19.3259 209.492 19.1712 209.288 18.9534C209.084 18.7355 208.982 18.4298 208.982 18.0362C208.982 17.5302 209.193 17.1261 209.615 16.8239C210.036 16.5147 210.602 16.3601 211.312 16.3601C211.684 16.3601 212.057 16.4057 212.429 16.4971C212.802 16.5885 213.108 16.7115 213.347 16.8661L212.914 17.6673C212.457 17.3721 211.92 17.2245 211.301 17.2245C210.873 17.2245 210.546 17.2948 210.321 17.4353C210.096 17.5759 209.984 17.7621 209.984 17.9941C209.984 18.1768 210.047 18.3209 210.173 18.4263C210.3 18.5317 210.455 18.609 210.637 18.6582C210.827 18.7074 211.091 18.7636 211.428 18.8269C211.878 18.9042 212.24 18.9885 212.514 19.0799C212.795 19.1642 213.034 19.3118 213.231 19.5226C213.427 19.7335 213.526 20.0287 213.526 20.4082C213.526 20.9142 213.308 21.3183 212.872 21.6205C212.443 21.9157 211.857 22.0633 211.112 22.0633ZM217.774 16.3601C218.484 16.3601 219.046 16.5674 219.461 16.982C219.882 17.3897 220.093 17.9906 220.093 18.7847V22H219.081V18.9007C219.081 18.3595 218.951 17.9519 218.691 17.6778C218.431 17.4037 218.058 17.2667 217.574 17.2667C217.025 17.2667 216.593 17.4283 216.277 17.7516C215.961 18.0679 215.803 18.5247 215.803 19.1221V22H214.79V14.1779H215.803V17.2034C216.013 16.9364 216.287 16.729 216.625 16.5814C216.969 16.4339 217.352 16.3601 217.774 16.3601ZM222.208 22.0633C222.012 22.0633 221.843 21.9965 221.702 21.863C221.562 21.7224 221.492 21.5467 221.492 21.3359C221.492 21.132 221.562 20.9634 221.702 20.8298C221.843 20.6893 222.012 20.619 222.208 20.619C222.405 20.619 222.57 20.6858 222.704 20.8193C222.837 20.9528 222.904 21.125 222.904 21.3359C222.904 21.5467 222.834 21.7224 222.693 21.863C222.56 21.9965 222.398 22.0633 222.208 22.0633Z" fill="#878A8F"/>
<line x1="101" y1="18.5" x2="116.6" y2="18.5" stroke="#878A8F"/>
<path d="M63.6194 12.4375C60.3487 12.4375 57.6882 14.891 57.6882 17.9062C57.6882 20.9215 60.3489 23.375 63.6194 23.375C66.8901 23.375 69.5505 20.9215 69.5505 17.9062C69.5505 14.891 66.8898 12.4375 63.6194 12.4375ZM63.6194 22.2815C61.0028 22.2815 58.8742 20.3188 58.8742 17.9062C58.8742 15.4941 61.0026 13.5315 63.6194 13.5315C66.2357 13.5315 68.3641 15.4941 68.3641 17.9062C68.3638 20.3188 66.2355 22.2815 63.6194 22.2815Z" fill="#878A8F"/>
<path d="M62.0569 16.23C62.2766 16.0152 62.5392 15.8415 62.8303 15.7185C63.1274 15.5927 63.4509 15.5285 63.7778 15.5304C64.1928 15.5304 64.5736 15.6216 64.9207 15.8041C65.2628 15.9825 65.5543 16.233 65.7714 16.5351L66.617 15.9522C66.2957 15.5478 65.8784 15.2166 65.3968 14.984C64.9076 14.7447 64.3676 14.625 63.7776 14.625C63.2915 14.625 62.8346 14.7116 62.407 14.8853C61.9892 15.0519 61.6096 15.2906 61.2889 15.5886C60.9686 15.8883 60.7129 16.2414 60.5354 16.629C60.3506 17.0258 60.2583 17.4521 60.2583 17.9065C60.2583 18.3604 60.3506 18.7863 60.5354 19.1842C60.7127 19.5716 60.9685 19.9244 61.2889 20.2237C61.6097 20.5218 61.9892 20.7608 62.407 20.9278C62.8348 21.1007 63.2917 21.1875 63.7776 21.1875C64.3676 21.1875 64.9074 21.0678 65.3968 20.8283C65.8786 20.596 66.2961 20.2648 66.617 19.8601L65.7714 19.278C65.554 19.5797 65.2625 19.8299 64.9207 20.0084C64.5736 20.1907 64.1928 20.2819 63.7778 20.2819C63.4509 20.2839 63.1274 20.2197 62.8303 20.0938C62.5391 19.9708 62.2765 19.7971 62.0569 19.5823C61.8367 19.3679 61.6616 19.1162 61.5318 18.8296C61.4021 18.543 61.3373 18.2348 61.3373 17.9065C61.3373 17.5775 61.4021 17.2697 61.5318 16.9829C61.6616 16.6961 61.8367 16.4452 62.0569 16.23" fill="#878A8F"/>
<g filter="url(#filter0_d)">
<path d="M24.4405 25.5309H18.0283V36.5742H14.4097V9.27519H23.4468C26.5217 9.27519 28.8841 9.97517 30.5341 11.3751C32.1965 12.7751 33.0277 14.8125 33.0277 17.4874C33.0277 19.1873 32.5653 20.6685 31.6403 21.931C30.7278 23.1934 29.4529 24.1372 27.8154 24.7621L34.2277 36.3492V36.5742H30.3653L24.4405 25.5309ZM18.0283 22.5872H23.5593C25.3468 22.5872 26.7655 22.1247 27.8154 21.1998C28.8779 20.2748 29.4091 19.0373 29.4091 17.4874C29.4091 15.8 28.9029 14.5063 27.8904 13.6063C26.8905 12.7063 25.4405 12.2501 23.5406 12.2376H18.0283V22.5872Z" fill="#878A8F"/>
<path d="M24.4405 25.5309L24.695 25.3944L24.6133 25.2422H24.4405V25.5309ZM18.0283 25.5309V25.2422H17.7396V25.5309H18.0283ZM18.0283 36.5742V36.8629H18.317V36.5742H18.0283ZM14.4097 36.5742H14.1209V36.8629H14.4097V36.5742ZM14.4097 9.27519V8.98648H14.1209V9.27519H14.4097ZM30.5341 11.3751L30.3473 11.5953L30.3481 11.596L30.5341 11.3751ZM31.6403 21.931L31.4074 21.7604L31.4063 21.7619L31.6403 21.931ZM27.8154 24.7621L27.7125 24.4924L27.4018 24.611L27.5628 24.9019L27.8154 24.7621ZM34.2277 36.3492H34.5164V36.2747L34.4803 36.2094L34.2277 36.3492ZM34.2277 36.5742V36.8629H34.5164V36.5742H34.2277ZM30.3653 36.5742L30.1109 36.7107L30.1926 36.8629H30.3653V36.5742ZM18.0283 22.5872H17.7396V22.8759H18.0283V22.5872ZM27.8154 21.1998L27.6258 20.982L27.6246 20.9831L27.8154 21.1998ZM27.8904 13.6063L27.6973 13.8209L27.6986 13.8221L27.8904 13.6063ZM23.5406 12.2376L23.5425 11.9489H23.5406V12.2376ZM18.0283 12.2376V11.9489H17.7396V12.2376H18.0283ZM24.4405 25.2422H18.0283V25.8196H24.4405V25.2422ZM17.7396 25.5309V36.5742H18.317V25.5309H17.7396ZM18.0283 36.2855H14.4097V36.8629H18.0283V36.2855ZM14.6984 36.5742V9.27519H14.1209V36.5742H14.6984ZM14.4097 9.56391H23.4468V8.98648H14.4097V9.56391ZM23.4468 9.56391C26.4817 9.56391 28.7677 10.255 30.3473 11.5953L30.7209 11.155C29.0006 9.69532 26.5617 8.98648 23.4468 8.98648V9.56391ZM30.3481 11.596C31.9306 12.9286 32.739 14.8762 32.739 17.4874H33.3164C33.3164 14.7488 32.4624 12.6216 30.72 11.1543L30.3481 11.596ZM32.739 17.4874C32.739 19.1316 32.2929 20.5517 31.4074 21.7604L31.8732 22.1016C32.8376 20.7853 33.3164 19.2431 33.3164 17.4874H32.739ZM31.4063 21.7619C30.5308 22.9732 29.3042 23.8849 27.7125 24.4924L27.9184 25.0319C29.6016 24.3894 30.9248 23.4137 31.8743 22.1001L31.4063 21.7619ZM27.5628 24.9019L33.9751 36.489L34.4803 36.2094L28.068 24.6223L27.5628 24.9019ZM33.939 36.3492V36.5742H34.5164V36.3492H33.939ZM34.2277 36.2855H30.3653V36.8629H34.2277V36.2855ZM30.6197 36.4377L24.695 25.3944L24.1861 25.6674L30.1109 36.7107L30.6197 36.4377ZM18.0283 22.8759H23.5593V22.2985H18.0283V22.8759ZM23.5593 22.8759C25.397 22.8759 26.8903 22.3996 28.0063 21.4164L27.6246 20.9831C26.6407 21.8499 25.2966 22.2985 23.5593 22.2985V22.8759ZM28.005 21.4175C29.1372 20.4318 29.6978 19.1114 29.6978 17.4874H29.1204C29.1204 18.9633 28.6186 20.1178 27.6259 20.982L28.005 21.4175ZM29.6978 17.4874C29.6978 15.7393 29.171 14.3583 28.0822 13.3905L27.6986 13.8221C28.6348 14.6543 29.1204 15.8606 29.1204 17.4874H29.6978ZM28.0836 13.3917C27.0129 12.4281 25.4841 11.9617 23.5425 11.9489L23.5387 12.5263C25.3969 12.5385 26.768 12.9845 27.6973 13.8209L28.0836 13.3917ZM23.5406 11.9489H18.0283V12.5263H23.5406V11.9489ZM17.7396 12.2376V22.5872H18.317V12.2376H17.7396Z" fill="#878A8F"/>
</g>
<path d="M39.7549 6.39942L43.7399 2.44335" stroke="#878A8F" stroke-width="0.288711"/>
<path d="M43.7399 43.5562L40.0062 39.364" stroke="#878A8F" stroke-width="0.288711"/>
<path d="M2.52405 2.40771L6.92919 5.89412" stroke="#878A8F" stroke-width="0.288711"/>
<path d="M2.30981 43.5562L6.25242 39.5582" stroke="#878A8F" stroke-width="0.288711"/>
<rect x="1.73244" y="1.7267" width="42.7293" height="42.5476" rx="2.88712" stroke="#878A8F" stroke-width="0.577423"/>
<rect x="0.288711" y="0.288711" width="45.6164" height="45.4226" rx="2.88712" stroke="#878A8F" stroke-width="0.577423"/>
<defs>
<filter id="filter0_d" x="13.8323" y="8.98633" width="22.7052" height="30.1861" filterUnits="userSpaceOnUse" color-interpolation-filters="sRGB">
<feFlood flood-opacity="0" result="BackgroundImageFix"/>
<feColorMatrix in="SourceAlpha" type="matrix" values="0 0 0 0 0 0 0 0 0 0 0 0 0 0 0 0 0 0 127 0"/>
<feOffset dx="0.866135" dy="1.15485"/>
<feGaussianBlur stdDeviation="0.577423"/>
<feColorMatrix type="matrix" values="0 0 0 0 0 0 0 0 0 0 0 0 0 0 0 0 0 0 0.25 0"/>
<feBlend mode="normal" in2="BackgroundImageFix" result="effect1_dropShadow"/>
<feBlend mode="normal" in="SourceGraphic" in2="effect1_dropShadow" result="shape"/>
</filter>
</defs>
</svg>