<svg width="243" height="46" viewBox="0 0 243 46" fill="none" xmlns="http://www.w3.org/2000/svg">
<path d="M70.865 22.1938L67.8367 17.8196H67.6572H64.4943V22.1938H60.8604V6.49157H67.6572C69.048 6.49157 70.2518 6.72337 71.2687 7.18696C72.3006 7.65055 73.0932 8.30855 73.6465 9.16096C74.1998 10.0134 74.4765 11.0228 74.4765 12.1893C74.4765 13.3557 74.1924 14.3651 73.6241 15.2176C73.0708 16.055 72.2782 16.6981 71.2463 17.1467L74.7681 22.1938H70.865ZM70.7977 12.1893C70.7977 11.3069 70.5135 10.634 69.9453 10.1704C69.377 9.69185 68.547 9.45257 67.4553 9.45257H64.4943V14.9259H67.4553C68.547 14.9259 69.377 14.6867 69.9453 14.2081C70.5135 13.7296 70.7977 13.0566 70.7977 12.1893ZM77.3556 6.49157H80.9896V22.1938H77.3556V6.49157ZM89.8754 22.463C88.6342 22.463 87.4303 22.2985 86.2639 21.9695C85.1124 21.6256 84.1852 21.1844 83.4823 20.6461L84.7161 17.9094C85.389 18.4029 86.1891 18.7992 87.1163 19.0983C88.0435 19.3973 88.9707 19.5469 89.8978 19.5469C90.9297 19.5469 91.6924 19.3973 92.1859 19.0983C92.6794 18.7842 92.9261 18.373 92.9261 17.8645C92.9261 17.4906 92.7766 17.1841 92.4775 16.9448C92.1934 16.6906 91.8195 16.4887 91.3559 16.3391C90.9073 16.1896 90.2941 16.0251 89.5165 15.8456C88.3201 15.5615 87.3406 15.2774 86.5779 14.9932C85.8152 14.7091 85.1572 14.253 84.6039 13.6249C84.0656 12.9968 83.7964 12.1593 83.7964 11.1125C83.7964 10.2003 84.0431 9.3778 84.5366 8.64503C85.0301 7.8973 85.7704 7.3066 86.7574 6.87292C87.7593 6.43923 88.9781 6.22239 90.4138 6.22239C91.4157 6.22239 92.3952 6.34203 93.3523 6.5813C94.3094 6.82057 95.1469 7.16453 95.8647 7.61317L94.7431 10.3723C93.2925 9.54978 91.8419 9.13853 90.3913 9.13853C89.3744 9.13853 88.6192 9.30303 88.1257 9.63203C87.6472 9.96103 87.4079 10.3947 87.4079 10.9331C87.4079 11.4714 87.6846 11.8752 88.2379 12.1444C88.8062 12.3986 89.666 12.6528 90.8175 12.9071C92.0139 13.1912 92.9934 13.4753 93.7561 13.7595C94.5188 14.0436 95.1693 14.4923 95.7077 15.1054C96.261 15.7185 96.5377 16.5485 96.5377 17.5953C96.5377 18.4926 96.2834 19.3151 95.775 20.0628C95.2815 20.7956 94.5337 21.3788 93.5318 21.8125C92.5298 22.2462 91.311 22.463 89.8754 22.463ZM113.422 6.49157V22.1938H109.788V15.7559H102.655V22.1938H99.0208V6.49157H102.655V12.6828H109.788V6.49157H113.422ZM127.478 18.8291H120.188L118.797 22.1938H115.073L122.072 6.49157H125.661L132.682 22.1938H128.869L127.478 18.8291ZM126.334 16.07L123.844 10.0582L121.354 16.07H126.334ZM148.554 6.49157L141.757 22.1938H138.168L131.393 6.49157H135.319L140.097 17.7075L144.942 6.49157H148.554ZM167.156 14.096H170.476V20.4666C169.624 21.1096 168.637 21.6031 167.515 21.9471C166.394 22.2911 165.265 22.463 164.128 22.463C162.498 22.463 161.032 22.1191 159.731 21.4312C158.43 20.7283 157.406 19.7637 156.658 18.5375C155.925 17.2962 155.559 15.898 155.559 14.3427C155.559 12.7874 155.925 11.3967 156.658 10.1704C157.406 8.92917 158.438 7.9646 159.754 7.27669C161.07 6.57382 162.55 6.22239 164.195 6.22239C165.571 6.22239 166.82 6.45419 167.941 6.91778C169.063 7.38137 170.005 8.05432 170.768 8.93664L168.435 11.0901C167.313 9.90869 165.96 9.31798 164.375 9.31798C163.373 9.31798 162.483 9.52735 161.705 9.94607C160.928 10.3648 160.322 10.9555 159.888 11.7182C159.455 12.4809 159.238 13.3557 159.238 14.3427C159.238 15.3148 159.455 16.1821 159.888 16.9448C160.322 17.7075 160.92 18.3057 161.683 18.7393C162.461 19.1581 163.343 19.3674 164.33 19.3674C165.377 19.3674 166.319 19.1431 167.156 18.6945V14.096ZM188.253 6.49157V22.1938H184.619V15.7559H177.486V22.1938H173.852V6.49157H177.486V12.6828H184.619V6.49157H188.253ZM199.573 22.463C197.943 22.463 196.47 22.1116 195.154 21.4087C193.852 20.7059 192.828 19.7413 192.08 18.515C191.348 17.2738 190.981 15.883 190.981 14.3427C190.981 12.8024 191.348 11.4191 192.08 10.1928C192.828 8.9516 193.852 7.97955 195.154 7.27669C196.47 6.57382 197.943 6.22239 199.573 6.22239C201.203 6.22239 202.668 6.57382 203.969 7.27669C205.27 7.97955 206.295 8.9516 207.042 10.1928C207.79 11.4191 208.164 12.8024 208.164 14.3427C208.164 15.883 207.79 17.2738 207.042 18.515C206.295 19.7413 205.27 20.7059 203.969 21.4087C202.668 22.1116 201.203 22.463 199.573 22.463ZM199.573 19.3674C200.5 19.3674 201.337 19.1581 202.085 18.7393C202.833 18.3057 203.416 17.7075 203.835 16.9448C204.268 16.1821 204.485 15.3148 204.485 14.3427C204.485 13.3707 204.268 12.5033 203.835 11.7406C203.416 10.9779 202.833 10.3872 202.085 9.96851C201.337 9.53482 200.5 9.31798 199.573 9.31798C198.645 9.31798 197.808 9.53482 197.06 9.96851C196.313 10.3872 195.722 10.9779 195.288 11.7406C194.869 12.5033 194.66 13.3707 194.66 14.3427C194.66 15.3148 194.869 16.1821 195.288 16.9448C195.722 17.7075 196.313 18.3057 197.06 18.7393C197.808 19.1581 198.645 19.3674 199.573 19.3674ZM216.054 22.463C214.813 22.463 213.609 22.2985 212.443 21.9695C211.291 21.6256 210.364 21.1844 209.661 20.6461L210.895 17.9094C211.568 18.4029 212.368 18.7992 213.295 19.0983C214.222 19.3973 215.15 19.5469 216.077 19.5469C217.109 19.5469 217.871 19.3973 218.365 19.0983C218.858 18.7842 219.105 18.373 219.105 17.8645C219.105 17.4906 218.956 17.1841 218.656 16.9448C218.372 16.6906 217.998 16.4887 217.535 16.3391C217.086 16.1896 216.473 16.0251 215.695 15.8456C214.499 15.5615 213.52 15.2774 212.757 14.9932C211.994 14.7091 211.336 14.253 210.783 13.6249C210.245 12.9968 209.975 12.1593 209.975 11.1125C209.975 10.2003 210.222 9.3778 210.716 8.64503C211.209 7.8973 211.949 7.3066 212.936 6.87292C213.938 6.43923 215.157 6.22239 216.593 6.22239C217.595 6.22239 218.574 6.34203 219.531 6.5813C220.488 6.82057 221.326 7.16453 222.044 7.61317L220.922 10.3723C219.471 9.54978 218.021 9.13853 216.57 9.13853C215.553 9.13853 214.798 9.30303 214.305 9.63203C213.826 9.96103 213.587 10.3947 213.587 10.9331C213.587 11.4714 213.864 11.8752 214.417 12.1444C214.985 12.3986 215.845 12.6528 216.997 12.9071C218.193 13.1912 219.172 13.4753 219.935 13.7595C220.698 14.0436 221.348 14.4923 221.887 15.1054C222.44 15.7185 222.717 16.5485 222.717 17.5953C222.717 18.4926 222.462 19.3151 221.954 20.0628C221.46 20.7956 220.713 21.3788 219.711 21.8125C218.709 22.2462 217.49 22.463 216.054 22.463ZM239.601 6.49157V22.1938H235.967V15.7559H228.834V22.1938H225.2V6.49157H228.834V12.6828H235.967V6.49157H239.601Z" fill="#878A8F"/>
<path d="M65.2277 32.8609C66.1835 32.8609 66.9355 33.0893 67.4836 33.5461C68.0318 34.0029 68.3059 34.6319 68.3059 35.4331C68.3059 36.2343 68.0318 36.8633 67.4836 37.3201C66.9355 37.7769 66.1835 38.0053 65.2277 38.0053H63.4039V40.2402H62.3497V32.8609H65.2277ZM65.196 37.0882C65.8637 37.0882 66.3732 36.9476 66.7246 36.6665C67.076 36.3784 67.2517 35.9672 67.2517 35.4331C67.2517 34.899 67.076 34.4914 66.7246 34.2102C66.3732 33.9221 65.8637 33.778 65.196 33.778H63.4039V37.0882H65.196ZM75.5262 40.2402L73.9344 37.9737C73.7376 37.9878 73.583 37.9948 73.4706 37.9948H71.6468V40.2402H70.5926V32.8609H73.4706C74.4264 32.8609 75.1784 33.0893 75.7265 33.5461C76.2747 34.0029 76.5488 34.6319 76.5488 35.4331C76.5488 36.0024 76.4082 36.4873 76.1271 36.8879C75.846 37.2885 75.4454 37.5802 74.9253 37.7629L76.6753 40.2402H75.5262ZM73.4389 37.0987C74.1066 37.0987 74.6161 36.9547 74.9675 36.6665C75.3189 36.3784 75.4946 35.9672 75.4946 35.4331C75.4946 34.899 75.3189 34.4914 74.9675 34.2102C74.6161 33.9221 74.1066 33.778 73.4389 33.778H71.6468V37.0987H73.4389ZM82.3212 40.3246C81.5762 40.3246 80.905 40.1629 80.3077 39.8396C79.7103 39.5093 79.2394 39.056 78.895 38.4797C78.5577 37.9034 78.389 37.2604 78.389 36.5506C78.389 35.8407 78.5577 35.1977 78.895 34.6214C79.2394 34.0451 79.7103 33.5953 80.3077 33.272C80.905 32.9417 81.5762 32.7765 82.3212 32.7765C83.0591 32.7765 83.7268 32.9417 84.3241 33.272C84.9215 33.5953 85.3889 34.0451 85.7262 34.6214C86.0636 35.1906 86.2322 35.8337 86.2322 36.5506C86.2322 37.2674 86.0636 37.914 85.7262 38.4903C85.3889 39.0595 84.9215 39.5093 84.3241 39.8396C83.7268 40.1629 83.0591 40.3246 82.3212 40.3246ZM82.3212 39.3863C82.8623 39.3863 83.3473 39.2633 83.776 39.0174C84.2117 38.7714 84.5526 38.434 84.7985 38.0053C85.0515 37.5696 85.178 37.0847 85.178 36.5506C85.178 36.0164 85.0515 35.535 84.7985 35.1063C84.5526 34.6706 84.2117 34.3297 83.776 34.0837C83.3473 33.8378 82.8623 33.7148 82.3212 33.7148C81.78 33.7148 81.2881 33.8378 80.8453 34.0837C80.4096 34.3297 80.0652 34.6706 79.8122 35.1063C79.5662 35.535 79.4432 36.0164 79.4432 36.5506C79.4432 37.0847 79.5662 37.5696 79.8122 38.0053C80.0652 38.434 80.4096 38.7714 80.8453 39.0174C81.2881 39.2633 81.78 39.3863 82.3212 39.3863ZM88.5814 32.8609H91.6913C92.4714 32.8609 93.1637 33.0155 93.7681 33.3247C94.3725 33.634 94.8398 34.0697 95.1701 34.6319C95.5075 35.1871 95.6762 35.8267 95.6762 36.5506C95.6762 37.2744 95.5075 37.9175 95.1701 38.4797C94.8398 39.0349 94.3725 39.4672 93.7681 39.7764C93.1637 40.0856 92.4714 40.2402 91.6913 40.2402H88.5814V32.8609ZM91.6281 39.3231C92.2254 39.3231 92.749 39.2071 93.1988 38.9752C93.6556 38.7433 94.007 38.42 94.253 38.0053C94.499 37.5837 94.622 37.0987 94.622 36.5506C94.622 36.0024 94.499 35.521 94.253 35.1063C94.007 34.6846 93.6556 34.3578 93.1988 34.1259C92.749 33.894 92.2254 33.778 91.6281 33.778H89.6356V39.3231H91.6281ZM101.086 40.3246C100.102 40.3246 99.336 40.0435 98.7878 39.4812C98.2397 38.919 97.9656 38.1108 97.9656 37.0566V32.8609H99.0198V37.0144C99.0198 38.5957 99.712 39.3863 101.097 39.3863C101.771 39.3863 102.288 39.1931 102.646 38.8065C103.005 38.413 103.184 37.8156 103.184 37.0144V32.8609H104.206V37.0566C104.206 38.1178 103.932 38.9295 103.384 39.4918C102.836 40.047 102.07 40.3246 101.086 40.3246ZM110.405 40.3246C109.667 40.3246 109 40.1629 108.402 39.8396C107.812 39.5093 107.348 39.0595 107.011 38.4903C106.673 37.914 106.505 37.2674 106.505 36.5506C106.505 35.8337 106.673 35.1906 107.011 34.6214C107.348 34.0451 107.815 33.5953 108.413 33.272C109.01 32.9417 109.678 32.7765 110.416 32.7765C110.992 32.7765 111.519 32.8749 111.997 33.0717C112.475 33.2615 112.883 33.5461 113.22 33.9256L112.535 34.5898C111.979 34.0064 111.287 33.7148 110.458 33.7148C109.91 33.7148 109.414 33.8378 108.972 34.0837C108.529 34.3297 108.181 34.6706 107.928 35.1063C107.682 35.535 107.559 36.0164 107.559 36.5506C107.559 37.0847 107.682 37.5696 107.928 38.0053C108.181 38.434 108.529 38.7714 108.972 39.0174C109.414 39.2633 109.91 39.3863 110.458 39.3863C111.28 39.3863 111.972 39.0912 112.535 38.5008L113.22 39.165C112.883 39.5445 112.471 39.8326 111.987 40.0294C111.509 40.2262 110.982 40.3246 110.405 40.3246ZM116.845 33.778H114.315V32.8609H120.418V33.778H117.888V40.2402H116.845V33.778ZM122.305 32.8609H123.359V40.2402H122.305V32.8609ZM132.643 32.8609L129.407 40.2402H128.363L125.116 32.8609H126.255L128.912 38.9225L131.589 32.8609H132.643ZM139.678 39.3231V40.2402H134.322V32.8609H139.53V33.778H135.377V36.0445H139.077V36.9406H135.377V39.3231H139.678ZM155.708 32.8609C156.663 32.8609 157.415 33.0893 157.964 33.5461C158.512 34.0029 158.786 34.6319 158.786 35.4331C158.786 36.2343 158.512 36.8633 157.964 37.3201C157.415 37.7769 156.663 38.0053 155.708 38.0053H153.884V40.2402H152.83V32.8609H155.708ZM155.676 37.0882C156.344 37.0882 156.853 36.9476 157.205 36.6665C157.556 36.3784 157.732 35.9672 157.732 35.4331C157.732 34.899 157.556 34.4914 157.205 34.2102C156.853 33.9221 156.344 33.778 155.676 33.778H153.884V37.0882H155.676ZM166.006 40.2402L164.414 37.9737C164.217 37.9878 164.063 37.9948 163.95 37.9948H162.127V40.2402H161.072V32.8609H163.95C164.906 32.8609 165.658 33.0893 166.206 33.5461C166.755 34.0029 167.029 34.6319 167.029 35.4331C167.029 36.0024 166.888 36.4873 166.607 36.8879C166.326 37.2885 165.925 37.5802 165.405 37.7629L167.155 40.2402H166.006ZM163.919 37.0987C164.586 37.0987 165.096 36.9547 165.447 36.6665C165.799 36.3784 165.974 35.9672 165.974 35.4331C165.974 34.899 165.799 34.4914 165.447 34.2102C165.096 33.9221 164.586 33.778 163.919 33.778H162.127V37.0987H163.919ZM172.801 40.3246C172.056 40.3246 171.385 40.1629 170.788 39.8396C170.19 39.5093 169.719 39.056 169.375 38.4797C169.038 37.9034 168.869 37.2604 168.869 36.5506C168.869 35.8407 169.038 35.1977 169.375 34.6214C169.719 34.0451 170.19 33.5953 170.788 33.272C171.385 32.9417 172.056 32.7765 172.801 32.7765C173.539 32.7765 174.207 32.9417 174.804 33.272C175.401 33.5953 175.869 34.0451 176.206 34.6214C176.543 35.1906 176.712 35.8337 176.712 36.5506C176.712 37.2674 176.543 37.914 176.206 38.4903C175.869 39.0595 175.401 39.5093 174.804 39.8396C174.207 40.1629 173.539 40.3246 172.801 40.3246ZM172.801 39.3863C173.342 39.3863 173.827 39.2633 174.256 39.0174C174.692 38.7714 175.032 38.434 175.278 38.0053C175.531 37.5696 175.658 37.0847 175.658 36.5506C175.658 36.0164 175.531 35.535 175.278 35.1063C175.032 34.6706 174.692 34.3297 174.256 34.0837C173.827 33.8378 173.342 33.7148 172.801 33.7148C172.26 33.7148 171.768 33.8378 171.325 34.0837C170.889 34.3297 170.545 34.6706 170.292 35.1063C170.046 35.535 169.923 36.0164 169.923 36.5506C169.923 37.0847 170.046 37.5696 170.292 38.0053C170.545 38.434 170.889 38.7714 171.325 39.0174C171.768 39.2633 172.26 39.3863 172.801 39.3863ZM184.174 36.5084H185.186V39.3863C184.821 39.6885 184.396 39.9205 183.911 40.0821C183.426 40.2437 182.92 40.3246 182.393 40.3246C181.648 40.3246 180.976 40.1629 180.379 39.8396C179.782 39.5093 179.311 39.0595 178.966 38.4903C178.629 37.914 178.46 37.2674 178.46 36.5506C178.46 35.8337 178.629 35.1871 178.966 34.6108C179.311 34.0345 179.782 33.5848 180.379 33.2615C180.983 32.9382 181.662 32.7765 182.414 32.7765C183.004 32.7765 183.538 32.8749 184.016 33.0717C184.501 33.2615 184.912 33.5426 185.249 33.9151L184.596 34.5687C184.005 33.9994 183.292 33.7148 182.456 33.7148C181.894 33.7148 181.388 33.8378 180.938 34.0837C180.495 34.3227 180.147 34.66 179.894 35.0958C179.641 35.5245 179.515 36.0094 179.515 36.5506C179.515 37.0847 179.641 37.5696 179.894 38.0053C180.147 38.434 180.495 38.7714 180.938 39.0174C181.388 39.2633 181.89 39.3863 182.445 39.3863C183.106 39.3863 183.682 39.2282 184.174 38.912V36.5084ZM192.876 40.2402L191.284 37.9737C191.087 37.9878 190.933 37.9948 190.82 37.9948H188.997V40.2402H187.942V32.8609H190.82C191.776 32.8609 192.528 33.0893 193.076 33.5461C193.625 34.0029 193.899 34.6319 193.899 35.4331C193.899 36.0024 193.758 36.4873 193.477 36.8879C193.196 37.2885 192.795 37.5802 192.275 37.7629L194.025 40.2402H192.876ZM190.789 37.0987C191.456 37.0987 191.966 36.9547 192.317 36.6665C192.669 36.3784 192.844 35.9672 192.844 35.4331C192.844 34.899 192.669 34.4914 192.317 34.2102C191.966 33.9221 191.456 33.778 190.789 33.778H188.997V37.0987H190.789ZM201.041 38.3954H197.12L196.308 40.2402H195.222L198.564 32.8609H199.608L202.96 40.2402H201.853L201.041 38.3954ZM200.673 37.552L199.081 33.9362L197.489 37.552H200.673ZM211.641 40.2402L211.63 34.8638L208.963 39.3442H208.478L205.811 34.8955V40.2402H204.799V32.8609H205.663L208.742 38.0475L211.778 32.8609H212.642L212.653 40.2402H211.641ZM222.447 40.2402L222.436 34.8638L219.769 39.3442H219.284L216.617 34.8955V40.2402H215.605V32.8609H216.47L219.548 38.0475L222.584 32.8609H223.448L223.459 40.2402H222.447ZM231.767 39.3231V40.2402H226.411V32.8609H231.619V33.778H227.466V36.0445H231.166V36.9406H227.466V39.3231H231.767ZM239.145 40.2402L237.553 37.9737C237.357 37.9878 237.202 37.9948 237.09 37.9948H235.266V40.2402H234.212V32.8609H237.09C238.045 32.8609 238.797 33.0893 239.346 33.5461C239.894 34.0029 240.168 34.6319 240.168 35.4331C240.168 36.0024 240.027 36.4873 239.746 36.8879C239.465 37.2885 239.065 37.5802 238.544 37.7629L240.294 40.2402H239.145ZM237.058 37.0987C237.726 37.0987 238.235 36.9547 238.587 36.6665C238.938 36.3784 239.114 35.9672 239.114 35.4331C239.114 34.899 238.938 34.4914 238.587 34.2102C238.235 33.9221 237.726 33.778 237.058 33.778H235.266V37.0987H237.058Z" fill="#878A8F"/>
<g filter="url(#filter0_d)">
<path d="M24.4405 25.5309H18.0283V36.5742H14.4097V9.27519H23.4468C26.5217 9.27519 28.8841 9.97517 30.5341 11.3751C32.1965 12.7751 33.0277 14.8125 33.0277 17.4874C33.0277 19.1873 32.5653 20.6685 31.6403 21.931C30.7278 23.1934 29.4529 24.1372 27.8154 24.7621L34.2277 36.3492V36.5742H30.3653L24.4405 25.5309ZM18.0283 22.5872H23.5593C25.3468 22.5872 26.7655 22.1247 27.8154 21.1998C28.8779 20.2748 29.4091 19.0373 29.4091 17.4874C29.4091 15.8 28.9029 14.5063 27.8904 13.6063C26.8905 12.7063 25.4405 12.2501 23.5406 12.2376H18.0283V22.5872Z" fill="#878A8F"/>
<path d="M24.4405 25.5309L24.695 25.3944L24.6133 25.2422H24.4405V25.5309ZM18.0283 25.5309V25.2422H17.7396V25.5309H18.0283ZM18.0283 36.5742V36.8629H18.317V36.5742H18.0283ZM14.4097 36.5742H14.1209V36.8629H14.4097V36.5742ZM14.4097 9.27519V8.98648H14.1209V9.27519H14.4097ZM30.5341 11.3751L30.3473 11.5953L30.3481 11.596L30.5341 11.3751ZM31.6403 21.931L31.4074 21.7604L31.4063 21.7619L31.6403 21.931ZM27.8154 24.7621L27.7125 24.4924L27.4018 24.611L27.5628 24.9019L27.8154 24.7621ZM34.2277 36.3492H34.5164V36.2747L34.4803 36.2094L34.2277 36.3492ZM34.2277 36.5742V36.8629H34.5164V36.5742H34.2277ZM30.3653 36.5742L30.1109 36.7107L30.1926 36.8629H30.3653V36.5742ZM18.0283 22.5872H17.7396V22.8759H18.0283V22.5872ZM27.8154 21.1998L27.6258 20.982L27.6246 20.9831L27.8154 21.1998ZM27.8904 13.6063L27.6973 13.8209L27.6986 13.8221L27.8904 13.6063ZM23.5406 12.2376L23.5425 11.9489H23.5406V12.2376ZM18.0283 12.2376V11.9489H17.7396V12.2376H18.0283ZM24.4405 25.2422H18.0283V25.8196H24.4405V25.2422ZM17.7396 25.5309V36.5742H18.317V25.5309H17.7396ZM18.0283 36.2855H14.4097V36.8629H18.0283V36.2855ZM14.6984 36.5742V9.27519H14.1209V36.5742H14.6984ZM14.4097 9.56391H23.4468V8.98648H14.4097V9.56391ZM23.4468 9.56391C26.4817 9.56391 28.7677 10.255 30.3473 11.5953L30.7209 11.155C29.0006 9.69532 26.5617 8.98648 23.4468 8.98648V9.56391ZM30.3481 11.596C31.9306 12.9286 32.739 14.8762 32.739 17.4874H33.3164C33.3164 14.7488 32.4624 12.6216 30.72 11.1543L30.3481 11.596ZM32.739 17.4874C32.739 19.1316 32.2929 20.5517 31.4074 21.7604L31.8732 22.1016C32.8376 20.7853 33.3164 19.2431 33.3164 17.4874H32.739ZM31.4063 21.7619C30.5308 22.9732 29.3042 23.8849 27.7125 24.4924L27.9184 25.0319C29.6016 24.3894 30.9248 23.4137 31.8743 22.1001L31.4063 21.7619ZM27.5628 24.9019L33.9751 36.489L34.4803 36.2094L28.068 24.6223L27.5628 24.9019ZM33.939 36.3492V36.5742H34.5164V36.3492H33.939ZM34.2277 36.2855H30.3653V36.8629H34.2277V36.2855ZM30.6197 36.4377L24.695 25.3944L24.1861 25.6674L30.1109 36.7107L30.6197 36.4377ZM18.0283 22.8759H23.5593V22.2985H18.0283V22.8759ZM23.5593 22.8759C25.397 22.8759 26.8903 22.3996 28.0063 21.4164L27.6246 20.9831C26.6407 21.8499 25.2966 22.2985 23.5593 22.2985V22.8759ZM28.005 21.4175C29.1372 20.4318 29.6978 19.1114 29.6978 17.4874H29.1204C29.1204 18.9633 28.6186 20.1178 27.6259 20.982L28.005 21.4175ZM29.6978 17.4874C29.6978 15.7393 29.171 14.3583 28.0822 13.3905L27.6986 13.8221C28.6348 14.6543 29.1204 15.8606 29.1204 17.4874H29.6978ZM28.0836 13.3917C27.0129 12.4281 25.4841 11.9617 23.5425 11.9489L23.5387 12.5263C25.3969 12.5385 26.768 12.9845 27.6973 13.8209L28.0836 13.3917ZM23.5406 11.9489H18.0283V12.5263H23.5406V11.9489ZM17.7396 12.2376V22.5872H18.317V12.2376H17.7396Z" fill="#878A8F"/>
</g>
<path d="M39.7549 6.39942L43.7399 2.44335" stroke="#878A8F" stroke-width="0.288711"/>
<path d="M43.7399 43.5562L40.0062 39.364" stroke="#878A8F" stroke-width="0.288711"/>
<path d="M2.52405 2.40771L6.92919 5.89412" stroke="#878A8F" stroke-width="0.288711"/>
<path d="M2.30981 43.5562L6.25242 39.5582" stroke="#878A8F" stroke-width="0.288711"/>
<rect x="1.73244" y="1.7267" width="42.7293" height="42.5476" rx="2.88712" stroke="#878A8F" stroke-width="0.577423"/>
<rect x="0.288711" y="0.288711" width="45.6164" height="45.4226" rx="2.88712" stroke="#878A8F" stroke-width="0.577423"/>
<defs>
<filter id="filter0_d" x="13.8323" y="8.98633" width="22.7052" height="30.1861" filterUnits="userSpaceOnUse" color-interpolation-filters="sRGB">
<feFlood flood-opacity="0" result="BackgroundImageFix"/>
<feColorMatrix in="SourceAlpha" type="matrix" values="0 0 0 0 0 0 0 0 0 0 0 0 0 0 0 0 0 0 127 0"/>
<feOffset dx="0.866135" dy="1.15485"/>
<feGaussianBlur stdDeviation="0.577423"/>
<feColorMatrix type="matrix" values="0 0 0 0 0 0 0 0 0 0 0 0 0 0 0 0 0 0 0.25 0"/>
<feBlend mode="normal" in2="BackgroundImageFix" result="effect1_dropShadow"/>
<feBlend mode="normal" in="SourceGraphic" in2="effect1_dropShadow" result="shape"/>
</filter>
</defs>
</svg>