<svg width="58" height="58" viewBox="0 0 58 58" fill="none" xmlns="http://www.w3.org/2000/svg">
<path class="circle" d="M29 56.2602C44.0553 56.2602 56.26 44.0555 56.26 29.0002C56.26 13.945 44.0553 1.74023 29 1.74023C13.9447 1.74023 1.73999 13.945 1.73999 29.0002C1.73999 44.0555 13.9447 56.2602 29 56.2602Z" fill="black"/>
<path d="M21.9796 25.8385V33.6201H20.5011L16.6214 28.8955V33.6201H14.8427V25.8385H16.3324L20.201 30.563V25.8385H21.9796ZM30.1795 32.175V33.6201H24.1542V25.8385H30.035V27.2836H25.944V28.9734H29.5569V30.3741H25.944V32.175H30.1795ZM43.5988 25.8385L41.053 33.6201H39.1187L37.4068 28.3508L35.6392 33.6201H33.716L31.1592 25.8385H33.0268L34.7832 31.3079L36.6175 25.8385H38.285L40.0637 31.3523L41.8757 25.8385H43.5988Z" fill="white"/>
</svg>
