<svg width="54" height="53" viewBox="0 0 54 53" fill="none" xmlns="http://www.w3.org/2000/svg">
<g filter="url(#filter0_d)">
<path d="M27.9968 28.9566H21.5845V40H17.9659V12.701H27.0031C30.078 12.701 32.4404 13.401 34.0904 14.8009C35.7528 16.2009 36.584 18.2383 36.584 20.9132C36.584 22.6131 36.1215 24.0943 35.1966 25.3568C34.2841 26.6192 33.0091 27.5629 31.3717 28.1879L37.784 39.775V40H33.9216L27.9968 28.9566ZM21.5845 26.013H27.1156C28.903 26.013 30.3217 25.5505 31.3717 24.6255C32.4342 23.7006 32.9654 22.4631 32.9654 20.9132C32.9654 19.2257 32.4592 17.932 31.4467 17.0321C30.4467 16.1321 28.9968 15.6759 27.0969 15.6634H21.5845V26.013Z" fill="black"/>
<path d="M27.9968 28.9566L28.2512 28.8202L28.1696 28.6679H27.9968V28.9566ZM21.5845 28.9566V28.6679H21.2958V28.9566H21.5845ZM21.5845 40V40.2887H21.8733V40H21.5845ZM17.9659 40H17.6772V40.2887H17.9659V40ZM17.9659 12.701V12.4123H17.6772V12.701H17.9659ZM34.0904 14.8009L33.9036 15.021L33.9044 15.0217L34.0904 14.8009ZM35.1966 25.3568L34.9637 25.1861L34.9626 25.1877L35.1966 25.3568ZM31.3717 28.1879L31.2687 27.9182L30.9581 28.0368L31.1191 28.3277L31.3717 28.1879ZM37.784 39.775H38.0727V39.7004L38.0366 39.6352L37.784 39.775ZM37.784 40V40.2887H38.0727V40H37.784ZM33.9216 40L33.6672 40.1365L33.7489 40.2887H33.9216V40ZM21.5845 26.013H21.2958V26.3017H21.5845V26.013ZM31.3717 24.6255L31.1821 24.4078L31.1809 24.4089L31.3717 24.6255ZM31.4467 17.0321L31.2536 17.2467L31.2549 17.2479L31.4467 17.0321ZM27.0969 15.6634L27.0988 15.3747H27.0969V15.6634ZM21.5845 15.6634V15.3747H21.2958V15.6634H21.5845ZM27.9968 28.6679H21.5845V29.2454H27.9968V28.6679ZM21.2958 28.9566V40H21.8733V28.9566H21.2958ZM21.5845 39.7113H17.9659V40.2887H21.5845V39.7113ZM18.2546 40V12.701H17.6772V40H18.2546ZM17.9659 12.9897H27.0031V12.4123H17.9659V12.9897ZM27.0031 12.9897C30.038 12.9897 32.324 13.6808 33.9036 15.021L34.2771 14.5808C32.5568 13.1211 30.118 12.4123 27.0031 12.4123V12.9897ZM33.9044 15.0217C35.4869 16.3544 36.2953 18.302 36.2953 20.9132H36.8727C36.8727 18.1746 36.0187 16.0473 34.2763 14.5801L33.9044 15.0217ZM36.2953 20.9132C36.2953 22.5573 35.8492 23.9775 34.9637 25.1861L35.4295 25.5274C36.3939 24.2111 36.8727 22.6689 36.8727 20.9132H36.2953ZM34.9626 25.1877C34.0871 26.399 32.8604 27.3107 31.2687 27.9182L31.4746 28.4577C33.1578 27.8152 34.4811 26.8395 35.4306 25.5259L34.9626 25.1877ZM31.1191 28.3277L37.5314 39.9148L38.0366 39.6352L31.6243 28.0481L31.1191 28.3277ZM37.4953 39.775V40H38.0727V39.775H37.4953ZM37.784 39.7113H33.9216V40.2887H37.784V39.7113ZM34.176 39.8635L28.2512 28.8202L27.7424 29.0931L33.6672 40.1365L34.176 39.8635ZM21.5845 26.3017H27.1156V25.7243H21.5845V26.3017ZM27.1156 26.3017C28.9532 26.3017 30.4465 25.8253 31.5625 24.8422L31.1809 24.4089C30.1969 25.2757 28.8528 25.7243 27.1156 25.7243V26.3017ZM31.5613 24.8433C32.6935 23.8576 33.2541 22.5372 33.2541 20.9132H32.6767C32.6767 22.389 32.1748 23.5436 31.1821 24.4078L31.5613 24.8433ZM33.2541 20.9132C33.2541 19.1651 32.7272 17.784 31.6385 16.8163L31.2549 17.2479C32.1911 18.08 32.6767 19.2864 32.6767 20.9132H33.2541ZM31.6398 16.8175C30.5692 15.8539 29.0404 15.3874 27.0988 15.3747L27.095 15.9521C28.9532 15.9643 30.3243 16.4103 31.2536 17.2467L31.6398 16.8175ZM27.0969 15.3747H21.5845V15.9521H27.0969V15.3747ZM21.2958 15.6634V26.013H21.8733V15.6634H21.2958Z" fill="black"/>
</g>
<path d="M43.3112 9.82471L47.2962 5.86864" stroke="black" stroke-width="0.288711"/>
<path d="M47.2961 46.9819L43.5624 42.7898" stroke="black" stroke-width="0.288711"/>
<path d="M6.08032 5.8335L10.4855 9.3199" stroke="black" stroke-width="0.288711"/>
<path d="M5.86609 46.9819L9.8087 42.984" stroke="black" stroke-width="0.288711"/>
<rect x="5.28871" y="5.15199" width="42.7293" height="42.5476" rx="2.88712" stroke="black" stroke-width="0.577423"/>
<rect x="0.332646" y="0.332646" width="52.5581" height="52.3347" rx="3.32646" stroke="black" stroke-width="0.665292"/>
<defs>
<filter id="filter0_d" x="17.3885" y="12.4121" width="22.7052" height="30.1861" filterUnits="userSpaceOnUse" color-interpolation-filters="sRGB">
<feFlood flood-opacity="0" result="BackgroundImageFix"/>
<feColorMatrix in="SourceAlpha" type="matrix" values="0 0 0 0 0 0 0 0 0 0 0 0 0 0 0 0 0 0 127 0"/>
<feOffset dx="0.866135" dy="1.15485"/>
<feGaussianBlur stdDeviation="0.577423"/>
<feColorMatrix type="matrix" values="0 0 0 0 0 0 0 0 0 0 0 0 0 0 0 0 0 0 0.25 0"/>
<feBlend mode="normal" in2="BackgroundImageFix" result="effect1_dropShadow"/>
<feBlend mode="normal" in="SourceGraphic" in2="effect1_dropShadow" result="shape"/>
</filter>
</defs>
</svg>